<svg width="314" height="467" viewBox="0 0 314 467" fill="none" xmlns="http://www.w3.org/2000/svg">
<path fill-rule="evenodd" clip-rule="evenodd" d="M312.096 130.036V8.54582C312.054 7.34892 311.77 6.17296 311.26 5.08906C310.751 4.00515 310.027 3.03582 309.132 2.23972C308.237 1.44362 307.191 0.837255 306.055 0.457352C304.919 0.0774481 303.718 -0.0681226 302.524 0.0294398H9.61495C8.41846 0.0619249 7.24093 0.33664 6.15359 0.836964C5.06624 1.33729 4.09165 2.05285 3.28861 2.94041C2.48558 3.82798 1.87077 4.86918 1.4814 6.001C1.09203 7.13283 0.936216 8.33185 1.02324 9.52561V301.342C0.946963 302.563 1.11623 303.787 1.52096 304.942C1.92569 306.097 2.5577 307.159 3.37969 308.065C4.20168 308.971 5.19687 309.703 6.30665 310.219C7.41643 310.734 8.61825 311.021 9.84103 311.064H302.411C303.607 311.172 304.812 311.037 305.954 310.667C307.096 310.297 308.151 309.7 309.056 308.911C309.961 308.123 310.696 307.159 311.219 306.078C311.741 304.998 312.04 303.822 312.096 302.623V130.036ZM194.261 30.8542C194.969 28.8307 196.259 27.0612 197.968 25.7674C199.678 24.4737 201.731 23.7132 203.87 23.5813H279.236C280.473 23.485 281.716 23.6578 282.88 24.0877C284.044 24.5177 285.101 25.1946 285.978 26.0719C286.855 26.9492 287.532 28.006 287.962 29.1698C288.392 30.3336 288.565 31.5767 288.469 32.8136V109.498C288.276 111.574 287.492 113.551 286.21 115.194C284.927 116.837 283.2 118.078 281.233 118.768L142.447 177.818C141.673 178.12 140.88 178.372 140.073 178.571C138.651 179.024 137.124 179.024 135.702 178.571C132.273 177.064 134.195 171.788 135.288 169.301L136.606 166.211L194.261 30.8542ZM24.6128 53.1624V32.928C24.6128 31.5923 24.571 30.6604 24.9042 29.5378C25.2374 28.4151 25.7976 27.3728 26.5501 26.4755C27.3025 25.5781 28.2312 24.8449 29.2787 24.3212C30.3261 23.7974 31.4698 23.4943 32.6392 23.4306H161.967C171.162 23.4306 169.202 30.1005 168.486 31.9093L157.181 58.4757C156.08 61.0506 154.247 63.245 151.908 64.786C149.57 66.327 146.83 67.1465 144.03 67.1427H35.4654C35.4654 67.1427 24.9143 66.5775 24.6128 53.1624ZM121.872 90.8453C124.228 90.851 126.546 91.4394 128.62 92.5581C130.693 93.6769 132.458 95.2912 133.756 97.2572C135.054 99.2233 135.846 101.48 136.061 103.826C136.275 106.172 135.906 108.535 134.986 110.704L125.678 130.902C124.567 133.516 122.699 135.738 120.315 137.282C117.932 138.827 115.141 139.623 112.301 139.569H35.5408C35.5408 139.569 24.7258 139.193 24.6504 125.25V100.228C24.6504 98.7246 24.6232 97.4276 25.1092 96.114C25.5953 94.8004 26.3951 93.6255 27.439 92.6917C30.3542 90.7868 33.0305 90.439 37.3119 90.5439L121.872 90.8453ZM24.6881 220.362V172.58C24.6881 171.457 24.7248 170.26 25.0833 169.157C25.4417 168.054 26.017 167.034 26.7752 166.156C27.5335 165.279 28.4595 164.561 29.4989 164.047C30.5382 163.532 31.67 163.23 32.8276 163.159H101.411C102.575 163.186 103.715 163.496 104.732 164.064C105.749 164.631 106.613 165.438 107.247 166.414C107.882 167.39 108.269 168.507 108.375 169.667C108.481 170.826 108.302 171.994 107.854 173.069L100.921 190.743C98.8624 194.718 95.4559 197.831 91.3115 199.523L30.1145 225.562C30.1145 225.562 24.6881 227.295 24.6881 220.362ZM78.1979 230.272C78.8349 229.929 79.8484 229.75 80.5718 229.75C81.2953 229.75 82.0075 229.929 82.6445 230.272C83.9257 231.327 83.172 233.211 82.6445 234.455L63.0117 281.069C62.0138 283.092 60.4585 284.787 58.529 285.956C56.5996 287.124 54.3763 287.716 52.1213 287.663H33.2798C32.0824 287.708 30.8894 287.494 29.7817 287.037C28.6739 286.581 27.6771 285.891 26.8588 285.016C26.0406 284.14 25.42 283.099 25.039 281.963C24.658 280.827 24.6504 279.65 24.6504 278.431V261.021C24.6078 258.902 25.143 256.81 26.1985 254.971C27.254 253.132 28.79 251.616 30.642 250.583L78.1979 230.272ZM92.9696 287.399C85.9982 287.399 87.0157 283.028 87.3548 281.973L113.13 221.379C114.839 217.413 117.787 214.107 121.533 211.958L139.546 204.874C140.621 204.436 141.787 204.264 142.943 204.374C144.099 204.484 145.212 204.872 146.186 205.505C147.159 206.138 147.965 206.997 148.535 208.009C149.104 209.022 149.421 210.157 149.456 211.318V279.147C149.331 280.755 148.785 282.301 147.874 283.631C146.986 284.901 145.781 285.916 144.38 286.577C142.979 287.238 141.429 287.522 139.885 287.399H92.9696ZM221.958 278.657C221.953 279.873 221.695 281.075 221.2 282.187C220.706 283.298 219.985 284.295 219.086 285.113C218.186 285.931 217.126 286.554 215.972 286.941C214.819 287.328 213.598 287.471 212.387 287.362H187.328C180.356 287.362 173.197 283.593 172.97 276.057C172.97 276.057 172.368 226.127 172.481 200.503C172.457 197.669 173.265 194.891 174.806 192.513C176.347 190.135 178.552 188.262 181.148 187.125L201.911 177.818C204.08 176.898 206.443 176.528 208.789 176.743C211.135 176.958 213.392 177.749 215.358 179.047C217.324 180.346 218.938 182.11 220.057 184.184C221.176 186.257 221.764 188.575 221.77 190.931L221.958 278.657ZM259.98 287.399C246 287.399 245.661 276.509 245.623 276.547L245.435 168.661C245.431 165.86 246.25 163.12 247.791 160.782C249.332 158.444 251.527 156.61 254.102 155.509L280.065 144.43C281.836 143.752 288.544 141.83 288.506 150.799C288.506 192.727 288.506 234.681 288.506 276.66C288.506 283.141 285.755 287.211 278.973 287.437" fill="url(#paint0_linear_703_26)"/>
<path d="M1 451.173V388.049H23.1007C28.4112 387.705 33.6814 389.174 38.0503 392.216C39.7808 393.615 41.1553 395.404 42.0609 397.438C42.9664 399.472 43.3772 401.692 43.2596 403.915C43.3532 405.767 43.0557 407.617 42.3864 409.346C41.7172 411.075 40.6913 412.643 39.3757 413.947C36.1514 416.67 32.1219 418.253 27.9092 418.454L28.7415 417.559V418.917L27.8785 418.022C32.5178 418.091 36.9915 419.759 40.547 422.744C41.9156 424.175 42.975 425.873 43.6592 427.731C44.3433 429.59 44.6375 431.57 44.5234 433.548C44.6154 436.884 43.7947 440.183 42.1499 443.086C40.5584 445.812 38.1548 447.971 35.2762 449.259C31.8448 450.702 28.1462 451.396 24.4262 451.297L1 451.173ZM22.5767 393.019H6.94899V416.139H21.2821C25.5363 416.436 29.7731 415.354 33.3651 413.052C34.692 412.007 35.7446 410.655 36.4321 409.111C37.1195 407.568 37.4211 405.88 37.3106 404.193C37.3966 402.613 37.1093 401.035 36.472 399.587C35.8346 398.138 34.8653 396.861 33.6425 395.859C30.3689 393.713 26.4774 392.714 22.5767 393.019V393.019ZM22.0835 421.047H6.94899V446.173H23.6556C27.6013 446.477 31.5285 445.385 34.7521 443.086C36.0865 441.887 37.13 440.4 37.803 438.736C38.4761 437.072 38.761 435.277 38.636 433.486C38.757 431.731 38.4532 429.973 37.7501 428.361C37.0471 426.748 35.9658 425.33 34.5981 424.226C30.8612 421.882 26.4844 420.77 22.0835 421.047V421.047Z" fill="#150636"/>
<path d="M63.388 451.173H57.7473V405.86H62.4325L62.8332 415.953C63.729 412.961 65.5403 410.327 68.0116 408.422C70.7433 406.604 73.9827 405.707 77.2588 405.86H80.3412V411.169H77.0739C75.1969 411.04 73.314 411.312 71.5498 411.966C69.7856 412.621 68.1804 413.643 66.8403 414.965C64.2565 418.232 63.0013 422.356 63.3264 426.51L63.388 451.173Z" fill="#150636"/>
<path d="M94.3349 416.664L90.3278 413.824C92.0758 411.014 94.5315 408.715 97.4481 407.156C100.548 405.579 103.99 404.795 107.466 404.872C109.898 404.716 112.336 405.081 114.616 405.944C116.897 406.806 118.967 408.146 120.689 409.873C123.992 413.837 125.647 418.92 125.313 424.072V451.173H120.566L120.289 442.407H120.104C118.756 445.282 116.617 447.713 113.939 449.414C110.691 451.31 106.968 452.232 103.212 452.069C98.906 452.312 94.6575 450.985 91.2526 448.334C89.8018 447.091 88.6533 445.533 87.8948 443.778C87.1363 442.024 86.7877 440.119 86.8755 438.209C86.7773 436.243 87.1353 434.28 87.9214 432.475C88.7076 430.67 89.9005 429.072 91.4066 427.807C95.0699 425.13 99.5479 423.81 104.075 424.072H119.888V423.208C120.109 419.611 118.927 416.069 116.59 413.33C115.389 412.112 113.944 411.163 112.35 410.546C110.756 409.929 109.049 409.657 107.343 409.749C104.774 409.689 102.231 410.272 99.9449 411.447C97.6242 412.626 95.6805 414.433 94.3349 416.664V416.664ZM104.322 447.531C107.201 447.607 110.049 446.926 112.583 445.556C114.873 444.235 116.727 442.271 117.915 439.907C119.219 437.184 119.863 434.191 119.795 431.171V428.548H104.661C101.395 428.32 98.1446 429.177 95.4138 430.986C94.3756 431.799 93.5518 432.854 93.0145 434.06C92.4772 435.265 92.2428 436.583 92.3314 437.9C92.2611 439.237 92.5031 440.573 93.0381 441.8C93.5732 443.027 94.3867 444.112 95.4138 444.969C97.9918 446.842 101.144 447.748 104.322 447.531V447.531Z" fill="#150636"/>
<path d="M155.428 443.271H154.102H156.877H155.52L171.086 405.953H177.035L157.647 451.173H153.085L133.666 405.953H139.831L155.428 443.271Z" fill="#150636"/>
<path d="M188.286 430.245V425.553H224.258L222.994 426.634C223.24 422.048 221.68 417.548 218.648 414.102C217.116 412.556 215.275 411.353 213.245 410.571C211.216 409.789 209.044 409.446 206.873 409.564C203.723 409.475 200.61 410.255 197.872 411.817C195.311 413.35 193.271 415.62 192.016 418.33C190.566 421.46 189.859 424.883 189.951 428.331V429.474C189.661 434.413 191.322 439.269 194.574 442.993C196.226 444.659 198.213 445.955 200.402 446.796C202.591 447.636 204.933 448.003 207.274 447.871C210.356 447.932 213.402 447.199 216.12 445.741C218.58 444.363 220.592 442.306 221.915 439.814L226.015 442.685C224.257 445.819 221.636 448.381 218.463 450.062C215.04 451.926 211.201 452.893 207.304 452.871C203.009 452.996 198.756 451.984 194.975 449.939C191.571 448.012 188.798 445.139 186.991 441.666C185.028 437.754 184.054 433.419 184.156 429.041C184.058 424.635 185.031 420.27 186.991 416.324C188.767 412.802 191.517 409.866 194.913 407.866C198.526 405.775 202.639 404.708 206.811 404.78C211.05 404.634 215.243 405.705 218.894 407.866C222.249 409.968 224.867 413.065 226.384 416.725C228.123 421.018 228.82 425.662 228.419 430.276L188.286 430.245Z" fill="#150636"/>
<path d="M247.037 451.173H241.396V405.86H245.958L246.328 415.953C247.202 412.951 249.018 410.311 251.506 408.422C254.238 406.604 257.477 405.707 260.753 405.86H263.836V411.169H260.568C258.692 411.04 256.809 411.312 255.044 411.966C253.28 412.621 251.675 413.643 250.335 414.965C247.751 418.232 246.496 422.356 246.821 426.51L247.037 451.173Z" fill="#150636"/>
<path d="M289.327 466.638H283.656L289.296 452.316C289.499 451.941 289.605 451.522 289.605 451.096C289.605 450.67 289.499 450.251 289.296 449.877L270.401 405.953H276.566L292.595 444.537L291.793 444.012H293.149L292.41 444.537L307.236 405.953H313L289.327 466.638Z" fill="#150636"/>
<defs>
<linearGradient id="paint0_linear_703_26" x1="166.733" y1="-462.533" x2="777.261" y2="-35.5929" gradientUnits="userSpaceOnUse">
<stop stop-color="#FFF500"/>
<stop offset="0.651028" stop-color="#FF00C7"/>
<stop offset="1" stop-color="#6B4DE0"/>
</linearGradient>
</defs>
</svg>
