<svg width="334" height="83" viewBox="0 0 334 83" fill="none" xmlns="http://www.w3.org/2000/svg">
<path fill-rule="evenodd" clip-rule="evenodd" d="M82.5562 34.5078V2.26782C82.545 1.9502 82.4696 1.63813 82.3344 1.35049C82.1993 1.06286 82.0071 0.805623 81.7697 0.59436C81.5323 0.383098 81.2545 0.222184 80.9531 0.121368C80.6517 0.0205526 80.3329 -0.0180778 80.0162 0.0078125H2.28617C1.96865 0.0164332 1.65617 0.0893348 1.36762 0.222107C1.07907 0.354879 0.820437 0.544769 0.607334 0.780304C0.394231 1.01584 0.231077 1.29214 0.12775 1.5925C0.0244233 1.89285 -0.0169265 2.21104 0.00616808 2.52783V79.9678C-0.0140746 80.2919 0.0308447 80.6167 0.138248 80.9231C0.245652 81.2295 0.413371 81.5113 0.631504 81.7518C0.849637 81.9923 1.11373 82.1867 1.40824 82.3234C1.70274 82.4601 2.02167 82.5364 2.34616 82.5478H79.9862C80.3034 82.5765 80.6232 82.5407 80.9262 82.4425C81.2292 82.3443 81.5093 82.1858 81.7494 81.9765C81.9895 81.7672 82.1848 81.5115 82.3235 81.2247C82.4621 80.9379 82.5413 80.626 82.5562 80.3078V34.5078ZM51.2862 8.18784C51.4741 7.65087 51.8163 7.18128 52.2699 6.83795C52.7235 6.49463 53.2683 6.29282 53.8362 6.25781H73.8362C74.1644 6.23227 74.4943 6.27812 74.8031 6.39221C75.112 6.5063 75.3924 6.68596 75.6252 6.91876C75.858 7.15157 76.0377 7.43201 76.1518 7.74084C76.2659 8.04968 76.3117 8.37958 76.2862 8.70782V29.0578C76.2351 29.6086 76.0271 30.1332 75.6867 30.5692C75.3464 31.0053 74.888 31.3345 74.3661 31.5178L37.5362 47.1878C37.3307 47.2681 37.1203 47.3348 36.9062 47.3878C36.5288 47.5081 36.1235 47.5081 35.7462 47.3878C34.8362 46.9878 35.3462 45.5878 35.6362 44.9278L35.9862 44.1078L51.2862 8.18784ZM6.26618 14.1078V8.73817C6.26618 8.38372 6.25507 8.13642 6.34351 7.8385C6.43194 7.54058 6.58059 7.26397 6.78028 7.02585C6.97996 6.78773 7.22641 6.59316 7.50437 6.45416C7.78232 6.31517 8.08584 6.23474 8.39615 6.21783H42.7162C45.1562 6.21783 44.6362 7.98783 44.4462 8.46783L41.4462 15.5178C41.154 16.2011 40.6674 16.7835 40.0469 17.1924C39.4264 17.6014 38.6993 17.8188 37.9562 17.8178H9.14615C9.14615 17.8178 6.34618 17.6678 6.26618 14.1078ZM32.0762 24.1078C32.7014 24.1093 33.3165 24.2655 33.8668 24.5623C34.417 24.8592 34.8853 25.2876 35.2298 25.8094C35.5743 26.3311 35.7844 26.93 35.8413 27.5526C35.8983 28.1752 35.8003 28.8022 35.5562 29.3778L33.0862 34.7378C32.7912 35.4314 32.2956 36.021 31.663 36.4309C31.0304 36.8407 30.2898 37.0521 29.5362 37.0378H9.16617C9.16617 37.0378 6.29616 36.9378 6.27616 33.2378V26.5978C6.27616 26.1988 6.26895 25.8546 6.39792 25.506C6.5269 25.1574 6.73916 24.8456 7.01618 24.5978C7.78979 24.0923 8.5 24 9.63617 24.0278L32.0762 24.1078ZM6.28617 58.4778V45.7978C6.28617 45.5 6.29591 45.1823 6.39103 44.8896C6.48614 44.5969 6.63881 44.3261 6.84003 44.0932C7.04125 43.8603 7.28699 43.67 7.56281 43.5334C7.83863 43.3968 8.13896 43.3167 8.44617 43.2978H26.6462C26.9551 43.305 27.2577 43.3874 27.5276 43.5379C27.7975 43.6884 28.0266 43.9025 28.1951 44.1616C28.3636 44.4207 28.4663 44.717 28.4944 45.0248C28.5224 45.3326 28.475 45.6425 28.3562 45.9278L26.5162 50.6178C25.97 51.6728 25.066 52.4987 23.9662 52.9478L7.72617 59.8578C7.72617 59.8578 6.28617 60.3178 6.28617 58.4778ZM20.4862 61.1078C20.6552 61.0168 20.9242 60.9691 21.1162 60.9691C21.3081 60.9691 21.4971 61.0168 21.6662 61.1078C22.0062 61.3878 21.8062 61.8878 21.6662 62.2178L16.4562 74.5878C16.1914 75.1246 15.7786 75.5746 15.2666 75.8846C14.7546 76.1947 14.1646 76.3519 13.5662 76.3378H8.56617C8.2484 76.3496 7.93183 76.2929 7.63785 76.1717C7.34387 76.0505 7.07935 75.8676 6.86222 75.6353C6.64508 75.4029 6.48039 75.1267 6.37928 74.8252C6.27817 74.5237 6.27616 74.2114 6.27616 73.8878V69.2678C6.26485 68.7053 6.40688 68.1503 6.68698 67.6623C6.96709 67.1743 7.3747 66.7718 7.86615 66.4978L20.4862 61.1078ZM24.4062 76.2678C22.5562 76.2678 22.8262 75.1078 22.9162 74.8278L29.7562 58.7478C30.2097 57.6953 30.9921 56.8181 31.9862 56.2478L36.7662 54.3678C37.0516 54.2515 37.3609 54.206 37.6678 54.2351C37.9746 54.2643 38.2698 54.3672 38.5282 54.5352C38.7866 54.7033 39.0005 54.9313 39.1516 55.1999C39.3028 55.4685 39.3867 55.7697 39.3962 56.0778V74.0778C39.3629 74.5045 39.2181 74.9148 38.9762 75.2678C38.7405 75.6047 38.421 75.8742 38.0491 76.0496C37.6773 76.225 37.266 76.3002 36.8562 76.2678H24.4062ZM58.6362 73.9478C58.6347 74.2706 58.5662 74.5896 58.435 74.8845C58.3037 75.1794 58.1127 75.4439 57.8738 75.6611C57.635 75.8783 57.3537 76.0434 57.0477 76.1462C56.7417 76.2489 56.4177 76.2869 56.0962 76.2578H49.4462C47.5962 76.2578 45.6962 75.2578 45.6362 73.2578C45.6362 73.2578 45.4762 60.0078 45.5062 53.2078C45.4998 52.4559 45.7144 51.7187 46.1233 51.0876C46.5322 50.4565 47.1173 49.9594 47.8062 49.6578L53.3162 47.1878C53.8917 46.9437 54.5188 46.8457 55.1414 46.9026C55.764 46.9596 56.3629 47.1697 56.8846 47.5142C57.4063 47.8587 57.8347 48.327 58.1316 48.8772C58.4285 49.4275 58.5847 50.0426 58.5862 50.6678L58.6362 73.9478ZM68.7262 76.2678C65.0162 76.2678 64.9262 73.3778 64.9162 73.3878L64.8661 44.7578C64.8651 44.0147 65.0826 43.2876 65.4916 42.6671C65.9005 42.0466 66.4829 41.56 67.1662 41.2678L74.0562 38.3278C74.5262 38.1478 76.3062 37.6378 76.2962 40.0178C76.2962 51.1445 76.2962 62.2778 76.2962 73.4178C76.2962 75.1378 75.5662 76.2178 73.7662 76.2778" fill="#050312"/>
<path d="M124 62.3675V20.0331H138.822C142.383 19.8019 145.918 20.7872 148.848 22.8278C150.009 23.7656 150.93 24.9658 151.538 26.3297C152.145 27.6936 152.421 29.1824 152.342 30.6736C152.404 31.9155 152.205 33.1565 151.756 34.3159C151.307 35.4752 150.619 36.5267 149.737 37.4016C147.575 39.2274 144.872 40.2895 142.047 40.424L142.605 39.8236V40.7345L142.026 40.1341C145.138 40.1809 148.138 41.2994 150.522 43.3015C151.44 44.2608 152.151 45.3994 152.61 46.646C153.068 47.8927 153.266 49.2206 153.189 50.547C153.251 52.7847 152.701 54.9967 151.597 56.9437C150.53 58.7718 148.918 60.2196 146.988 61.084C144.686 62.0511 142.206 62.5169 139.711 62.4503L124 62.3675ZM138.471 23.366H127.99V38.8714H137.602C140.455 39.0709 143.297 38.3451 145.706 36.8012C146.596 36.1007 147.302 35.1936 147.763 34.1584C148.224 33.1231 148.426 31.991 148.352 30.86C148.41 29.8002 148.217 28.7418 147.789 27.7706C147.362 26.7994 146.712 25.9429 145.892 25.2705C143.696 23.8314 141.087 23.1617 138.471 23.366ZM138.14 42.1629H127.99V59.0138H139.194C141.84 59.2181 144.474 58.4854 146.636 56.9437C147.531 56.1399 148.231 55.1421 148.682 54.0264C149.134 52.9106 149.325 51.7065 149.241 50.5056C149.322 49.3286 149.118 48.1493 148.647 47.0681C148.175 45.9868 147.45 45.0356 146.533 44.2951C144.027 42.723 141.091 41.9773 138.14 42.1629Z" fill="#050312"/>
<path d="M165.841 62.3673H162.058V31.9776H165.2L165.469 38.747C166.069 36.7405 167.284 34.9737 168.942 33.6958C170.774 32.4769 172.946 31.8749 175.143 31.9776H177.211V35.5382H175.019C173.761 35.4518 172.498 35.6341 171.315 36.073C170.131 36.512 169.055 37.1976 168.156 38.0845C166.423 40.2751 165.582 43.0407 165.8 45.8268L165.841 62.3673Z" fill="#050312"/>
<path d="M186.596 39.2235L183.908 37.319C185.081 35.4346 186.727 33.8924 188.683 32.8474C190.763 31.7898 193.071 31.2636 195.402 31.3156C197.033 31.2109 198.668 31.4558 200.197 32.0341C201.727 32.6124 203.115 33.5108 204.27 34.6692C206.485 37.3276 207.595 40.7368 207.371 44.1918V62.3677H204.188L204.002 56.4884H203.878C202.974 58.4167 201.54 60.0469 199.743 61.1877C197.565 62.4596 195.068 63.0775 192.549 62.968C189.661 63.131 186.812 62.2412 184.528 60.4631C183.555 59.6296 182.785 58.5848 182.277 57.4081C181.768 56.2314 181.534 54.9539 181.593 53.6731C181.527 52.3542 181.767 51.0379 182.294 49.8276C182.822 48.6172 183.622 47.5456 184.632 46.6967C187.089 44.9013 190.092 44.0159 193.128 44.1918H203.733V43.6122C203.881 41.2003 203.088 38.825 201.521 36.9877C200.716 36.171 199.746 35.5347 198.677 35.1208C197.608 34.7068 196.464 34.5247 195.319 34.5864C193.597 34.5458 191.891 34.9372 190.358 35.7249C188.802 36.5155 187.498 37.7276 186.596 39.2235ZM193.293 59.9249C195.224 59.9762 197.134 59.5194 198.834 58.6C200.37 57.7141 201.613 56.397 202.41 54.8116C203.284 52.9853 203.716 50.9781 203.671 48.9531V47.1935H193.521C191.33 47.0409 189.151 47.6157 187.319 48.8289C186.623 49.3743 186.07 50.0819 185.71 50.8902C185.35 51.6985 185.193 52.5829 185.252 53.466C185.205 54.3628 185.367 55.2581 185.726 56.0811C186.085 56.904 186.63 57.6318 187.319 58.2067C189.048 59.4626 191.162 60.0707 193.293 59.9249Z" fill="#050312"/>
<path d="M227.568 57.0681H226.679H228.54H227.63L238.069 32.04H242.059L229.056 62.3676H225.997L212.973 32.04H217.108L227.568 57.0681Z" fill="#050312"/>
<path d="M249.604 48.332V45.1854H273.729L272.881 45.9099C273.047 42.8342 272 39.8163 269.967 37.5052C268.939 36.4688 267.704 35.6618 266.343 35.1373C264.982 34.6129 263.526 34.3827 262.07 34.4621C259.958 34.4026 257.869 34.9254 256.034 35.9733C254.316 37.0013 252.947 38.5233 252.106 40.3413C251.133 42.44 250.659 44.7356 250.721 47.0485V47.8145C250.527 51.1272 251.64 54.3836 253.822 56.8817C254.93 57.9988 256.262 58.8679 257.73 59.4317C259.198 59.9955 260.769 60.2412 262.339 60.1525C264.406 60.1939 266.449 59.702 268.272 58.7241C269.921 57.8005 271.271 56.4206 272.158 54.7494L274.907 56.6747C273.729 58.777 271.971 60.4947 269.843 61.6223C267.547 62.8726 264.973 63.5207 262.359 63.5061C259.478 63.5899 256.626 62.9116 254.09 61.5395C251.808 60.2474 249.948 58.3203 248.736 55.9915C247.419 53.3678 246.766 50.4603 246.834 47.5246C246.769 44.5693 247.421 41.6423 248.736 38.9957C249.927 36.6336 251.771 34.6645 254.049 33.3235C256.472 31.9212 259.23 31.2056 262.029 31.2534C264.871 31.156 267.683 31.8742 270.132 33.3235C272.382 34.7333 274.138 36.8099 275.155 39.2648C276.321 42.1435 276.789 45.258 276.52 48.3527L249.604 48.332Z" fill="#050312"/>
<path d="M289.006 62.3673H285.223V31.9776H288.282L288.53 38.747C289.117 36.7336 290.334 34.9627 292.003 33.6958C293.835 32.4769 296.008 31.8749 298.205 31.9776H300.272V35.5382H298.081C296.822 35.4518 295.559 35.6341 294.376 36.073C293.193 36.512 292.117 37.1976 291.218 38.0845C289.485 40.2751 288.643 43.0407 288.861 45.8268L289.006 62.3673Z" fill="#050312"/>
<path d="M317.368 72.739H313.565L317.348 63.1336C317.483 62.8825 317.554 62.6014 317.554 62.3159C317.554 62.0303 317.483 61.7493 317.348 61.4982L304.676 32.04H308.81L319.56 57.9168L319.022 57.5649H319.932L319.435 57.9168L329.379 32.04H333.245L317.368 72.739Z" fill="#050312"/>
</svg>
