<svg id="Layer_1" data-name="Layer 1" xmlns="http://www.w3.org/2000/svg" viewBox="0 0 432 432"><defs><style>.cls-1{fill:#6b4de0;}</style></defs><title>Artboard 1</title><polygon class="cls-1" points="324 108 432 0 432 216 324 108"/><polygon class="cls-1" points="324 108 216 216 216 0 324 108"/><polygon class="cls-1" points="108 108 0 0 216 0 108 108"/><polygon class="cls-1" points="108 108 216 216 0 216 108 108"/><polygon class="cls-1" points="324 324 216 216 432 216 324 324"/><polygon class="cls-1" points="324 324 432 432 216 432 324 324"/><polygon class="cls-1" points="108 324 216 216 216 432 108 324"/><polygon class="cls-1" points="108 324 0 432 0 216 108 324"/></svg>