<svg fill="currentColor" viewbox="0 0 85 85" xmlns="http://www.w3.org/2000/svg"><path fill-rule="evenodd" clip-rule="evenodd" d="M85 35.534V2.327A2.43 2.43 0 0 0 82.374 0H2.358A2.42 2.42 0 0 0 0 2.595v79.78a2.512 2.512 0 0 0 2.42 2.666h79.954a2.43 2.43 0 0 0 2.647-2.306l-.02-47.2Zm-32.218-27.1a2.976 2.976 0 0 1 2.625-1.988h20.594a2.348 2.348 0 0 1 2.533 2.523v20.954a2.987 2.987 0 0 1-1.988 2.533L38.644 48.59a6.84 6.84 0 0 1-.649.216 2.06 2.06 0 0 1-1.184 0c-.947-.402-.412-1.843-.123-2.533l.36-.844L52.781 8.433ZM6.446 14.538V9.051a2.358 2.358 0 0 1 2.193-2.605h35.339c2.512 0 1.977 1.823 1.791 2.317l-3.089 7.27a3.883 3.883 0 0 1-3.552 2.357L9.401 18.34s-2.862-.113-2.955-3.769v-.03Zm26.566 10.297a3.903 3.903 0 0 1 3.573 5.437l-2.533 5.519a3.902 3.902 0 0 1-3.656 2.306H9.422s-2.955 0-2.976-3.85V27.4a2.348 2.348 0 0 1 .762-2.06c.8-.52 1.764-.73 2.708-.586l23.096.082ZM6.446 60.216V47.17a2.389 2.389 0 0 1 2.224-2.585h18.74a1.946 1.946 0 0 1 1.761 2.698l-1.884 4.85a5.149 5.149 0 0 1-2.575 2.44L7.94 61.657c-.196.124-1.503.454-1.493-1.441Zm14.621 2.708h.093a1.143 1.143 0 0 1 1.122 0c.35.278.145.803 0 1.133l-5.364 12.695a3.234 3.234 0 0 1-2.976 1.802H8.794a2.305 2.305 0 0 1-2.369-2.522v-4.757a3.192 3.192 0 0 1 1.638-2.863l13.004-5.488Zm4.026 15.62c-1.904 0-1.627-1.184-1.534-1.483l7.043-16.547a5.343 5.343 0 0 1 2.348-2.574l4.922-1.935a1.945 1.945 0 0 1 2.708 1.76V76.3c-.03.442-.176.868-.422 1.236a2.451 2.451 0 0 1-2.194 1.03l-12.87-.02Zm35.298-2.347a2.398 2.398 0 0 1-2.616 2.388h-6.847c-1.905 0-3.861-1.03-3.913-3.089-.206-6.888-.164-13.653-.134-20.655a3.954 3.954 0 0 1 2.358-3.655l5.674-2.533a3.892 3.892 0 0 1 5.426 3.572l.052 23.971Zm10.369 2.357c-3.83 0-3.923-2.975-3.923-2.975l-.062-29.48a3.902 3.902 0 0 1 2.368-3.594l7.053-3.027c.495-.185 2.317-.7 2.317 1.74V75.61c0 1.772-.741 2.894-2.605 2.945"/></svg>