<svg viewBox="0 0 127 32" fill="none" xmlns="http://www.w3.org/2000/svg"><title>Bravery Logo</title><path fill-rule="evenodd" clip-rule="evenodd" d="M31.462 13.518V1.193a.902.902 0 0 0-.61-.82.893.893 0 0 0-.358-.044H.871A.893.893 0 0 0 .05.935a.901.901 0 0 0-.047.357v29.605a.931.931 0 0 0 .892.987h29.589a.899.899 0 0 0 .98-.857V13.518ZM19.545 3.456a1.105 1.105 0 0 1 .972-.738h7.622a.867.867 0 0 1 .883.567.874.874 0 0 1 .05.37v7.78a1.107 1.107 0 0 1-.731.94l-14.036 5.99c-.078.031-.158.057-.24.077a.725.725 0 0 1-.442 0c-.347-.153-.152-.688-.042-.94l.133-.314 5.831-13.732ZM2.388 5.72V3.666c0-.135-.004-.23.03-.343a.869.869 0 0 1 .782-.62h13.08c.93 0 .73.677.659.86l-1.144 2.695a1.448 1.448 0 0 1-1.33.88H3.485S2.42 7.08 2.389 5.719Zm9.836 3.823a1.441 1.441 0 0 1 1.202.65 1.452 1.452 0 0 1 .124 1.365l-.94 2.049a1.443 1.443 0 0 1-1.354.88H3.493s-1.094-.039-1.101-1.454v-2.538c0-.152-.003-.284.046-.417a.872.872 0 0 1 .236-.347c.295-.194.565-.229.998-.218l8.552.03Zm-9.828 13.14v-4.848c0-.114.003-.235.04-.347a.883.883 0 0 1 .783-.609h6.936a.724.724 0 0 1 .652 1.006l-.702 1.793c-.208.403-.552.719-.971.89l-6.19 2.642s-.548.176-.548-.527Zm5.411 1.005a.569.569 0 0 1 .24-.053c.074 0 .146.018.21.053.13.107.053.298 0 .424l-1.986 4.73a1.2 1.2 0 0 1-1.1.668H3.264a.844.844 0 0 1-.834-.578 1.112 1.112 0 0 1-.04-.358v-1.766a1.188 1.188 0 0 1 .607-1.06l4.81-2.06Zm1.494 5.796c-.705 0-.602-.444-.568-.55l2.607-6.148c.173-.402.471-.738.85-.956l1.822-.719a.725.725 0 0 1 .909.319c.057.102.09.217.093.335v6.881a.9.9 0 0 1-.968.837H9.3Zm13.045-.887a.89.89 0 0 1-.968.883h-2.534c-.705 0-1.43-.383-1.452-1.147 0 0-.061-5.065-.05-7.665a1.47 1.47 0 0 1 .877-1.357l2.1-.944a1.441 1.441 0 0 1 1.835.645c.113.21.173.446.173.685l.02 8.9Zm3.846.887c-1.414 0-1.449-1.105-1.452-1.101l-.02-10.945a1.452 1.452 0 0 1 .877-1.335l2.626-1.124c.179-.068.857-.263.854.646v12.77c0 .657-.279 1.07-.965 1.093" fill="currentColor"/><path d="M47.257 24.169V7.984h5.648a5.99 5.99 0 0 1 3.821 1.069 3.606 3.606 0 0 1 1.332 3 3.394 3.394 0 0 1-.993 2.571 4.896 4.896 0 0 1-2.93 1.156l.212-.23v.348l-.22-.229a5.146 5.146 0 0 1 3.237 1.21 3.699 3.699 0 0 1 1.017 2.77 4.709 4.709 0 0 1-.607 2.446 3.866 3.866 0 0 1-1.757 1.583 6.678 6.678 0 0 1-2.773.522l-5.987-.031Zm5.514-14.91h-3.994v5.927h3.663a5.056 5.056 0 0 0 3.089-.791 2.666 2.666 0 0 0 1.008-2.271 2.59 2.59 0 0 0-.937-2.137 4.506 4.506 0 0 0-2.829-.728Zm-.126 7.186h-3.868v6.442h4.27a4.303 4.303 0 0 0 2.836-.792 3.021 3.021 0 0 0 .993-2.461 2.813 2.813 0 0 0-1.032-2.374 5.37 5.37 0 0 0-3.199-.816ZM63.202 24.169h-1.441V12.55h1.197l.102 2.588a3.823 3.823 0 0 1 1.324-1.931 3.926 3.926 0 0 1 2.363-.657h.788v1.361H66.7a3.38 3.38 0 0 0-2.615.973 4.247 4.247 0 0 0-.898 2.96l.015 6.324ZM71.112 15.32l-1.024-.727a4.822 4.822 0 0 1 1.82-1.71 5.368 5.368 0 0 1 2.56-.585 4.363 4.363 0 0 1 3.38 1.282 5.175 5.175 0 0 1 1.181 3.64v6.949h-1.213l-.07-2.248h-.048a4.275 4.275 0 0 1-1.576 1.797 4.992 4.992 0 0 1-2.741.68 4.547 4.547 0 0 1-3.057-.957 3.217 3.217 0 0 1-1.119-2.596 3.28 3.28 0 0 1 1.158-2.667 4.987 4.987 0 0 1 3.238-.958h4.042V17a3.572 3.572 0 0 0-.843-2.533 3.087 3.087 0 0 0-2.364-.918 3.924 3.924 0 0 0-1.89.435 3.56 3.56 0 0 0-1.434 1.338Zm2.552 7.915a4.193 4.193 0 0 0 2.112-.507 3.468 3.468 0 0 0 1.363-1.448 4.943 4.943 0 0 0 .48-2.24v-.672h-3.868a3.793 3.793 0 0 0-2.364.625 2.072 2.072 0 0 0-.787 1.773 2.217 2.217 0 0 0 .788 1.812c.658.48 1.464.713 2.276.657ZM86.727 22.143h-.34.71-.347l3.979-9.568h1.52l-4.955 11.594h-1.166l-4.963-11.594h1.575l3.987 9.568ZM95.125 18.803V17.6h9.194l-.323.277a4.512 4.512 0 0 0-1.111-3.213 3.94 3.94 0 0 0-3.01-1.163 4.38 4.38 0 0 0-2.3.577 3.809 3.809 0 0 0-1.497 1.67 5.752 5.752 0 0 0-.528 2.564v.293a4.849 4.849 0 0 0 1.182 3.466 4.237 4.237 0 0 0 3.246 1.25 4.58 4.58 0 0 0 2.261-.545 3.762 3.762 0 0 0 1.481-1.52l1.048.736a4.786 4.786 0 0 1-1.931 1.892 5.877 5.877 0 0 1-2.852.72 6.225 6.225 0 0 1-3.15-.752 5.181 5.181 0 0 1-2.041-2.12 6.878 6.878 0 0 1-.725-3.238 6.999 6.999 0 0 1 .725-3.26 5.261 5.261 0 0 1 2.025-2.169 5.856 5.856 0 0 1 3.04-.791 5.67 5.67 0 0 1 3.089.791 4.889 4.889 0 0 1 1.914 2.272 7.54 7.54 0 0 1 .52 3.474l-10.257-.008ZM110.14 24.169h-1.441V12.55h1.166l.094 2.588a3.74 3.74 0 0 1 1.324-1.931 3.925 3.925 0 0 1 2.363-.657h.788v1.361h-.835a3.38 3.38 0 0 0-2.616.973 4.25 4.25 0 0 0-.898 2.96l.055 6.324ZM120.95 28.134h-1.45l1.442-3.672a.667.667 0 0 0 0-.626l-4.83-11.261h1.576l4.097 9.892-.205-.134h.346l-.189.134 3.79-9.892H127l-6.05 15.559Z" fill="currentColor"/></svg>