<svg viewBox="0 0 21 18" fill="none" xmlns="http://www.w3.org/2000/svg"><path d="M1.287 7.714H6.43A1.286 1.286 0 0 0 7.715 6.43V1.286A1.286 1.286 0 0 0 6.43 0H1.287A1.286 1.286 0 0 0 0 1.286v5.143a1.286 1.286 0 0 0 1.286 1.285Zm1.285-5.143h2.572v2.572H2.572V2.57ZM7.997 9.484l-4.245 5.302-1.556-1.556a1.287 1.287 0 1 0-1.818 1.822l2.571 2.571c.241.241.568.377.91.377h.07a1.285 1.285 0 0 0 .933-.48l5.143-6.428a1.286 1.286 0 1 0-2.008-1.608ZM11.572 5.143h7.714a1.286 1.286 0 1 0 0-2.572h-7.714a1.286 1.286 0 0 0 0 2.572ZM19.286 12.857h-7.714a1.286 1.286 0 0 0 0 2.571h7.714a1.286 1.286 0 0 0 0-2.571Z" fill="currentColor"/></svg>