<svg viewBox="0 0 263 238" fill="none" xmlns="http://www.w3.org/2000/svg">
<path fill-rule="evenodd" clip-rule="evenodd" d="M131.5 0.82843C205.178 0.82843 262.766 47.4066 262.766 106.688C262.766 131.671 252.18 155.807 233.125 174.861L237.359 233.296C237.359 234.989 236.936 236.26 235.666 237.107C234.819 237.53 233.972 237.953 233.125 237.953C232.702 237.953 231.855 237.953 231.431 237.107L166.645 210.43C155.212 213.394 143.356 214.664 131.5 214.664C59.0922 214.664 0.234375 166.393 0.234375 106.688C0.234375 47.4066 57.8219 0.82843 131.5 0.82843ZM153.877 74.1791C154.145 74.2278 154.398 74.3402 154.614 74.5068C166.852 83.955 172.186 99.2158 170.475 119.867C169.011 137.521 158.908 148.229 146.704 152.94C146.166 137.767 141.433 125.736 132.609 117.148C132.374 116.917 132.076 116.759 131.752 116.694C131.428 116.629 131.092 116.66 130.785 116.782C130.478 116.904 130.213 117.112 130.022 117.381C129.832 117.651 129.724 117.97 129.712 118.299C129.426 125.508 126.357 130.54 123.105 135.873L123.096 135.888C120.026 140.922 116.88 146.119 116.217 153.166C99.0727 146.646 92.3337 129.249 92.2144 116.703C92.0439 98.9556 107.995 82.8922 114.858 76.8093C122.337 70.1806 126.302 62.7934 126.302 55.4453C126.302 55.1411 126.384 54.8426 126.539 54.5807C126.694 54.3189 126.917 54.1034 127.184 53.9566C127.451 53.8099 127.752 53.7373 128.057 53.7464C128.362 53.7554 128.658 53.8459 128.916 54.0084C136.732 58.9399 141.7 67.2352 143.282 77.9861C143.771 81.3799 143.931 84.8126 143.761 88.237C147.421 84.5949 150.22 80.1828 151.952 75.323C152.037 75.0642 152.183 74.8296 152.378 74.6388C152.572 74.448 152.81 74.3066 153.071 74.2266C153.332 74.1466 153.608 74.1303 153.877 74.1791Z" fill="currentColor"/></svg>
