<svg viewBox="0 0 194 194" class="icon--letter"><title>Letter with a flame</title><path d="M98.4801 136.021C98.0183 136.278 97.5092 136.406 97 136.406C96.4908 136.406 95.9817 136.278 95.5199 136.021L3.03125 84.3367V187.938C3.03125 189.612 4.38702 190.969 6.0625 190.969H187.938L187.943 190.968C188.301 190.967 188.647 190.881 188.981 190.758C189.065 190.727 189.144 190.697 189.224 190.659C189.535 190.513 189.829 190.332 190.079 190.083C190.083 190.078 190.086 190.072 190.09 190.068C190.273 189.883 190.437 189.675 190.572 189.438C190.602 189.385 190.6 189.325 190.627 189.271C190.716 189.092 190.761 188.901 190.814 188.705C190.867 188.504 190.924 188.311 190.935 188.107C190.938 188.048 190.969 187.998 190.969 187.938V84.3367L98.4801 136.021Z" fill="currentColor"/><path d="M166.719 90.9412L186.463 79.9075L166.719 68.4565V90.9412Z" fill="currentColor"/><path d="M27.2811 68.4565L7.53711 79.9075L27.2811 90.9412V68.4565Z" fill="currentColor"/><path fill-rule="evenodd" clip-rule="evenodd" d="M157.27 3.03125C158.945 3.03125 160.301 4.3885 160.301 6.0625V94.3292L96.6445 129.903L32.9883 94.3292V6.0625C32.9883 4.3885 34.3441 3.03125 36.0195 3.03125H157.27ZM107.901 45.5357C108.046 45.5618 108.182 45.6222 108.299 45.7117C114.904 50.7873 117.784 58.9855 116.86 70.0795C116.07 79.563 110.616 85.3156 104.029 87.8461C103.739 79.6955 101.184 73.2322 96.4211 68.6188C96.2938 68.4947 96.1329 68.41 95.9581 68.375C95.7832 68.34 95.6018 68.3563 95.4361 68.4219C95.2704 68.4874 95.1274 68.5994 95.0246 68.7441C94.9218 68.8889 94.8636 69.0602 94.8571 69.2372C94.7027 73.1097 93.0461 75.8132 91.2908 78.6778L91.2857 78.686C89.6288 81.3901 87.9305 84.1819 87.5727 87.9676C78.3186 84.4651 74.6809 75.1195 74.6165 68.3794C74.5245 58.8457 83.1347 50.2164 86.8394 46.9486C90.8763 43.3876 93.0162 39.4192 93.0162 35.4718C93.0163 35.3084 93.0605 35.148 93.1443 35.0074C93.228 34.8667 93.3482 34.7509 93.4923 34.6721C93.6365 34.5932 93.7992 34.5542 93.9637 34.5591C94.1282 34.564 94.2884 34.6126 94.4275 34.6999C98.6465 37.3491 101.328 41.8054 102.182 47.5808C102.446 49.4039 102.532 51.248 102.441 53.0876C104.416 51.1311 105.927 48.7609 106.862 46.1502C106.908 46.0112 106.987 45.8851 107.092 45.7826C107.197 45.6801 107.325 45.6042 107.466 45.5612C107.607 45.5182 107.756 45.5095 107.901 45.5357Z" fill="currentColor"/></svg>