<svg viewBox="0 0 1727 217" fill="none" xmlns="http://www.w3.org/2000/svg"><title>Mountains</title><path d="M1727.94 0c.2 47.998-.17 168.997 0 217C1372 155 339 159.5.028 217c-.104-31.195.124-135.385 0-166.58C44.285 58.132 99 45.5 133 54.694 152 58.5 263.791 42.39 329 50.42c51.5 6.342 171.892 48.218 242 50.081 29 7.196 24-4 65.191 7.196 35.309 12.304 78.183 2.688 117.275 4.032 2.831-.425 2.459-1.161 3.369-1.211C765.371 110.048 839 103 852 103c7.5 0 24.5 5.5 42 0 14.5-3 101.58-15.002 143.79-21.124 4.11.272 5.49-.454 8.43-.805-.33 1.6 34.23-2.638 53.16-4.031 41.38-3.054 85.4-4.818 126.55-8.069 97.17-7.677 189.87-19.915 277.58-32.267 82.1-11.556 149.94-22.406 224.43-36.704Z" fill="currentColor"/></svg>