<svg viewBox="0 0 200 62" fill="none"><title>SpeedyU</title><path d="M185.08 25.439 189.306 2.1h-.824l-4.575 25.256a9.648 9.648 0 0 1-.118.578c.624-.306 1.026-1.001 1.291-2.496ZM182.873 39.372h-6.088c-4.011 0-7.145-1.349-9.057-3.895-1.889-2.522-2.483-6.074-1.716-10.27l4.199-23.103h-.824l-4.548 25.02c-1.421 7.77 2.18 12.667 9.644 12.667h6.088c1.536 0 2.904-.172 4.13-.503-.59.054-1.199.084-1.831.084h.003ZM153.66 23.611l4.72-10.73h-.923l-4.004 9.096.207 1.634ZM144.388 39.338l-.697 1.395c.28-.025.559-.05.843-.071l1.647-3.3c.659-1.278.751-1.818.525-3.066l-4.019-21.416h-2.027l4.311 22.97c.256 1.398.138 2.09-.583 3.488ZM111.928 48.243l1.682-.842a661.946 661.946 0 0 0-26.398 3.761l-.295.047c-.625.305-1.268.615-2.088 1.005 8.9-1.453 17.808-2.71 26.747-3.795l.356-.176h-.004ZM142.071 47.43c-2.789.172-5.502.327-8.172.478-7.291.41-14.18.8-21.682 1.529l-.326.033c-.605.306-1.23.624-2.023 1.018 10.284-1 19.521-1.365 29.87-2.006 7.138-.444 8.839-.503 8.839-.503l.471-.955c-1.33.072-3.517.197-6.981.41l.004-.003ZM86.892 49.962c.26-.126.506-.243.736-.352a661.581 661.581 0 0 0-24.647 5.168l-.012-.037c-.736.343-1.433.661-2.406 1.097a664.046 664.046 0 0 1 24.938-5.215l1.391-.661ZM62.745 53.927a651.387 651.387 0 0 0-23.183 6.404c-.82.352-1.701.725-2.744 1.156a657.818 657.818 0 0 1 26.05-7.137l-.119-.423h-.004ZM127.454 19.669c-.594 0-1.141.168-1.628.473 2.123.323 3.429 2.19 3.429 4.989a9.19 9.19 0 0 1-.425 2.802c.969-1.006 1.574-2.601 1.574-4.478 0-2.404-1.076-3.786-2.95-3.786ZM130.274 38.765h-1.192l.042-1.277a9.18 9.18 0 0 1-1.115.69l-.034 1.01h6.988l.077-.419h-4.766v-.004ZM132.618 11.51l1.697-9.353h-.823l-1.606 8.85c.249.155.494.323.732.503ZM123.361 39.274c-6.318 0-10.559-5.202-10.559-12.946 0-3.397.67-6.471 1.865-9.034-1.923 2.772-3.015 6.512-3.015 10.71 0 7.027 3.774 11.689 9.41 11.689 1.069 0 2.038-.15 2.919-.44-.206.013-.41.021-.62.021ZM101.157 20.337h2.061c-.452-.96-1.387-1.487-2.693-1.487-.659 0-1.245.155-1.759.448.97.096 1.782.456 2.387 1.034l.004.005ZM99.483 39.276c-7.878 0-13.38-5.625-13.38-13.683 0-2.869.575-5.575 1.648-7.92-1.805 2.58-2.797 5.914-2.797 9.595 0 7.54 5.126 12.427 12.23 12.427 1.394 0 2.731-.155 3.996-.498-.548.05-1.115.08-1.698.08ZM103.32 28.145h-6.601c.072.15.149.288.237.418h6.011c.123-.13.242-.268.357-.418h-.004ZM105.375 28.145l.64.418h3.556c.026-.142.049-.28.072-.418h-4.268ZM74.416 20.337h2.061c-.452-.96-1.387-1.487-2.693-1.487-.66 0-1.246.155-1.759.448.97.096 1.782.456 2.387 1.034l.004.005ZM72.736 39.276c-7.877 0-13.379-5.625-13.379-13.683 0-2.869.575-5.575 1.648-7.92-1.805 2.58-2.797 5.914-2.797 9.595 0 7.54 5.126 12.427 12.23 12.427 1.394 0 2.731-.155 3.996-.498-.548.05-1.115.08-1.698.08ZM78.632 28.145l.64.418h3.552c.027-.142.05-.28.073-.418h-4.268.003ZM76.574 28.145h-6.602c.073.15.15.288.238.418h6.012c.122-.13.24-.268.356-.418h-.004ZM47.986 24.973c0 1.114-.172 2.14-.471 3.053 1-1.005 1.62-2.693 1.62-4.728 0-2.224-1.095-3.657-2.785-3.657a3.28 3.28 0 0 0-1.686.473c1.992.319 3.326 2.2 3.326 4.863l-.004-.004ZM46.673 39.253c-2.582 0-4.796-.691-6.609-2.06l-.268 1.49c1.322.654 2.847.989 4.579.989 1.076 0 2.1-.155 3.065-.444-.253.017-.51.025-.767.025ZM29.047 47.397h-1.403l.272-1.5 6.035-33.017h-.824l-6.38 34.936h8.246l.073-.42h-6.02ZM20.322 8.926c-.456 0-1.26.063-1.85.431 2.337.143 4.099 1.42 5.279 3.552l1.421-.833-.107-.193c-1.092-1.964-2.686-2.961-4.747-2.961l.004.004ZM12.25 23.14l4.728 2.166c1.793.817 2.214 1.835 2.214 3.058 0 .075-.007.15-.011.222.678-.377 1.16-.989 1.16-1.898 0-.57 0-1.21-1.505-1.897l-4.713-2.157c-4.835-2.12-7.501-6.098-7.501-11.2 0-1.893.356-3.64 1.011-5.193-1.41 1.901-2.16 4.276-2.16 6.869 0 4.456 2.306 8.07 6.777 10.03ZM16.95 39.3c-7.272 0-12.766-3.28-15.525-9.231L0 30.86c2.843 6.492 8.644 8.863 14.651 8.863 1.617 0 3.104-.188 4.452-.532a21.15 21.15 0 0 1-2.153.113V39.3Z" fill="#150636"/><path d="M167.139 25.45 171.686.43h9.265l-4.575 25.256c-.475 2.513.306 3.732 2.559 3.732h3.625c2.107 0 3.176-1.064 3.647-3.732L190.782.429H200l-4.808 26.475c-1.399 7.614-5.096 11.216-12.322 11.216h-6.088c-7.463 0-11.065-4.896-9.643-12.666v-.004ZM154.257 40.6l14.735-29.386h-8.85L153.9 25.396h-.21l-1.794-14.182h-8.547l4.31 22.969c.257 1.399.138 2.09-.582 3.489l-1.801 3.598a654.18 654.18 0 0 0-21.544 2.09 330.402 330.402 0 0 0 5.012-2.748 657.067 657.067 0 0 0-29.885 4.645 275.147 275.147 0 0 0 5.004-2.697 661.502 661.502 0 0 0-28.946 6.391 218.13 218.13 0 0 0 4.398-2.3 632.337 632.337 0 0 0-30.942 8.972c-3.402 1.625-5.096 2.383-8.482 3.787a650.111 650.111 0 0 1 28.045-7.644 168.113 168.113 0 0 1-4.295 1.993 660.46 660.46 0 0 1 29.096-5.997c-1.947.98-2.916 1.457-4.836 2.37a657.725 657.725 0 0 1 29.839-4.171 252.2 252.2 0 0 1-4.797 2.446c10.283-1.001 19.521-1.366 29.869-2.007 7.138-.444 8.839-.502 8.839-.502l2.602-5.282" fill="#FF006C"/><path d="M135.799.487 133.401 13.7h-.165c-1.793-1.96-4.191-3.003-7.222-3.003-7.268 0-12.065 6.823-12.065 15.635 0 7.028 3.774 11.69 9.41 11.69 2.958 0 5.172-1.148 6.847-3.233h.164l-.092 2.726h6.989l6.778-37.03h-8.246Zm-9.455 29.817c-2.33 0-3.935-1.96-3.935-4.888 0-4.05 2.165-7.003 5.053-7.003 2.518 0 4.1 1.96 4.1 5.043 0 3.895-2.238 6.848-5.218 6.848ZM100.46 10.664c-8.108 0-13.207 6.572-13.207 14.923 0 7.54 5.126 12.427 12.23 12.427 4.264 0 7.965-1.424 10.739-5.244l-5.962-3.895c-1.233 1.68-2.889 2.291-4.448 2.291-2.563 0-4.287-1.529-4.613-4.276h16.678c1.839-9.294-2.843-16.222-11.414-16.222l-.003-.004Zm-4.728 10.923c.862-2.596 2.54-4 4.796-4 2.445 0 4.031 1.554 4.146 4h-8.946.004ZM73.712 10.664c-8.108 0-13.207 6.572-13.207 14.923 0 7.54 5.126 12.427 12.23 12.427 4.264 0 7.965-1.424 10.739-5.244l-5.962-3.895c-1.233 1.68-2.888 2.291-4.448 2.291-2.563 0-4.287-1.529-4.613-4.276H85.13c1.84-9.294-2.843-16.222-11.414-16.222l-.003-.004Zm-4.728 10.923c.862-2.596 2.54-4 4.797-4 2.444 0 4.03 1.554 4.145 4H68.98h.004ZM49.334 10.695c-2.958 0-5.173 1.123-6.847 3.208h-.165l.092-2.697h-6.988l-6.383 34.935h8.245l2.004-11.153h.164c1.794 1.985 4.192 3.003 7.223 3.003 7.222 0 12.065-6.848 12.065-15.535 0-7.128-3.797-11.765-9.41-11.765v.004Zm-4.1 19.58c-2.517 0-4.1-1.934-4.1-5.042 0-3.895 2.238-6.848 5.219-6.848 2.33 0 3.935 1.985 3.935 4.913 0 4.025-2.165 6.978-5.054 6.978ZM23.913 15.966l-4.892-2.216c-1.981-.892-2.422-1.884-2.422-3.057 0-1.935 1.49-3.028 3.728-3.028 2.563 0 4.471 1.298 5.732 3.564l6.965-4.075C30.342 2.216 25.637 0 20.048 0 12.335 0 7.772 5.043 7.772 11.434c0 4.457 2.306 8.071 6.778 10.031l4.727 2.166c1.793.817 2.215 1.834 2.215 3.057 0 2.342-1.98 3.665-4.544 3.665-3.38 0-5.659-1.73-7.15-5.323l-7.501 4.15c2.843 6.492 8.643 8.863 14.651 8.863 8.85 0 13.743-5.55 13.743-12.402 0-4.226-2.142-7.614-6.778-9.675Z" fill="#FF006C"/></svg>