<svg viewBox="0 0 1157 453" fill="none" xmlns="http://www.w3.org/2000/svg"><title>Synthwave Sunrise</title><g opacity=".4"><path d="M146.545 332.797h810.964a408.21 408.21 0 0 1 4.519 27.51H142.025a423.535 423.535 0 0 1 4.52-27.51Z" fill="url(#aa)"/><path d="M138.687 424.566h826.66c-.224 9.258-.794 18.415-1.629 27.51H140.336c-.835-9.095-1.405-18.252-1.629-27.51h-.02Z" fill="url(#bb)"/><path d="M140.071 378.682h823.911a409.03 409.03 0 0 1 1.405 27.51H138.666c.163-9.238.651-18.415 1.405-27.51Z" fill="url(#cc)"/><path d="M158.475 286.912h787.083a414.032 414.032 0 0 1 7.838 27.511H150.657a405.573 405.573 0 0 1 7.838-27.511h-.02Z" fill="url(#dd)"/><path d="M279.222 103.415h545.589a412.545 412.545 0 0 1 28.461 27.51H250.781a422.119 422.119 0 0 1 28.461-27.51h-.02Z" fill="url(#ee)"/><path d="M342.659 57.53h418.735a413.4 413.4 0 0 1 40.961 27.51H301.697a415.77 415.77 0 0 1 40.962-27.51Z" fill="url(#ff)"/><path d="M201.208 195.164h701.638a416.634 416.634 0 0 1 15.778 27.51H185.45a412.655 412.655 0 0 1 15.778-27.51h-.02Z" fill="url(#gg)"/><path d="M176.39 241.048h751.273a414.487 414.487 0 0 1 11.502 27.51H164.908a408.371 408.371 0 0 1 11.503-27.51h-.021Z" fill="url(#hh)"/><path d="M552.026.678c62.318 0 121.399 13.796 174.392 38.478H377.635C430.628 14.474 489.709.678 552.026.678Z" fill="url(#ii)"/><path opacity=".7" d="M232.581 424.566h826.659c-.22 9.258-.79 18.415-1.63 27.51H234.209c-.834-9.095-1.404-18.252-1.628-27.51Z" fill="url(#jj)"/><path opacity=".8" d="M77.489 378.682H901.4a409.03 409.03 0 0 1 1.405 27.51H76.064a423.82 423.82 0 0 1 1.404-27.51h.02Z" fill="url(#kk)"/><path opacity=".3" d="M361.898 286.912h787.082a414.044 414.044 0 0 1 7.84 27.511H354.08a404.994 404.994 0 0 1 7.838-27.511h-.02Z" fill="url(#ll)"/><path opacity=".4" d="M28.872 103.415h545.59a412.772 412.772 0 0 1 28.461 27.51H.411a422.267 422.267 0 0 1 28.461-27.51Z" fill="url(#mm)"/><path opacity=".3" d="M217.474 57.53h418.735a413.397 413.397 0 0 1 40.962 27.51H176.513a415.857 415.857 0 0 1 40.961-27.51Z" fill="url(#nn)"/><path opacity=".4" d="M452.188 57.53h418.736a413.5 413.5 0 0 1 40.961 27.51H411.227a415.857 415.857 0 0 1 40.961-27.51Z" fill="url(#oo)"/><path opacity=".3" d="M122.97 195.163h701.638a416.466 416.466 0 0 1 15.778 27.511H107.212a413.118 413.118 0 0 1 15.778-27.511h-.02Z" fill="url(#pp)"/><path d="M234.473 149.279H869.58a407.996 407.996 0 0 1 21.071 27.51H213.402a426.315 426.315 0 0 1 21.071-27.51Z" fill="url(#qq)"/></g><defs><linearGradient id="aa" x1="265.806" y1="62.739" x2="1042" y2="839.337" gradientUnits="userSpaceOnUse"><stop stop-color="#2B3990"/><stop offset=".06" stop-color="#3C3687"/><stop offset=".26" stop-color="#752D6C"/><stop offset=".44" stop-color="#A22657"/><stop offset=".6" stop-color="#C22247"/><stop offset=".74" stop-color="#D51F3E"/><stop offset=".83" stop-color="#DD1E3B"/></linearGradient><linearGradient id="bb" x1="221.444" y1="107.098" x2="997.636" y2="883.676" gradientUnits="userSpaceOnUse"><stop stop-color="#2B3990"/><stop offset=".06" stop-color="#3C3687"/><stop offset=".26" stop-color="#752D6C"/><stop offset=".44" stop-color="#A22657"/><stop offset=".6" stop-color="#C22247"/><stop offset=".74" stop-color="#D51F3E"/><stop offset=".83" stop-color="#DD1E3B"/></linearGradient><linearGradient id="cc" x1="243.635" y1="84.919" x2="1019.83" y2="861.497" gradientUnits="userSpaceOnUse"><stop stop-color="#2B3990"/><stop offset=".06" stop-color="#3C3687"/><stop offset=".26" stop-color="#752D6C"/><stop offset=".44" stop-color="#A22657"/><stop offset=".6" stop-color="#C22247"/><stop offset=".74" stop-color="#D51F3E"/><stop offset=".83" stop-color="#DD1E3B"/></linearGradient><linearGradient id="dd" x1="287.935" y1="40.642" x2="1064.13" y2="817.22" gradientUnits="userSpaceOnUse"><stop stop-color="#2B3990"/><stop offset=".06" stop-color="#3C3687"/><stop offset=".26" stop-color="#752D6C"/><stop offset=".44" stop-color="#A22657"/><stop offset=".6" stop-color="#C22247"/><stop offset=".74" stop-color="#D51F3E"/><stop offset=".83" stop-color="#DD1E3B"/></linearGradient><linearGradient id="ee" x1="374.887" y1="-46.285" x2="1151.08" y2="730.314" gradientUnits="userSpaceOnUse"><stop stop-color="#2B3990"/><stop offset=".06" stop-color="#3C3687"/><stop offset=".26" stop-color="#752D6C"/><stop offset=".44" stop-color="#A22657"/><stop offset=".6" stop-color="#C22247"/><stop offset=".74" stop-color="#D51F3E"/><stop offset=".83" stop-color="#DD1E3B"/></linearGradient><linearGradient id="ff" x1="397.769" y1="-69.135" x2="1173.96" y2="707.443" gradientUnits="userSpaceOnUse"><stop stop-color="#2B3990"/><stop offset=".06" stop-color="#3C3687"/><stop offset=".26" stop-color="#752D6C"/><stop offset=".44" stop-color="#A22657"/><stop offset=".6" stop-color="#C22247"/><stop offset=".74" stop-color="#D51F3E"/><stop offset=".83" stop-color="#DD1E3B"/></linearGradient><linearGradient id="gg" x1="331.849" y1="-3.269" x2="1108.04" y2="773.329" gradientUnits="userSpaceOnUse"><stop stop-color="#2B3990"/><stop offset=".06" stop-color="#3C3687"/><stop offset=".26" stop-color="#752D6C"/><stop offset=".44" stop-color="#A22657"/><stop offset=".6" stop-color="#C22247"/><stop offset=".74" stop-color="#D51F3E"/><stop offset=".83" stop-color="#DD1E3B"/></linearGradient><linearGradient id="hh" x1="309.983" y1="18.605" x2="1086.15" y2="795.203" gradientUnits="userSpaceOnUse"><stop stop-color="#2B3990"/><stop offset=".06" stop-color="#3C3687"/><stop offset=".26" stop-color="#752D6C"/><stop offset=".44" stop-color="#A22657"/><stop offset=".6" stop-color="#C22247"/><stop offset=".74" stop-color="#D51F3E"/><stop offset=".83" stop-color="#DD1E3B"/></linearGradient><linearGradient id="ii" x1="420.734" y1="-92.088" x2="1196.93" y2="684.51" gradientUnits="userSpaceOnUse"><stop stop-color="#2B3990"/><stop offset=".06" stop-color="#3C3687"/><stop offset=".26" stop-color="#752D6C"/><stop offset=".44" stop-color="#A22657"/><stop offset=".6" stop-color="#C22247"/><stop offset=".74" stop-color="#D51F3E"/><stop offset=".83" stop-color="#DD1E3B"/></linearGradient><linearGradient id="jj" x1="315.338" y1="107.098" x2="1091.53" y2="883.676" gradientUnits="userSpaceOnUse"><stop stop-color="#2B3990"/><stop offset=".06" stop-color="#3C3687"/><stop offset=".26" stop-color="#752D6C"/><stop offset=".44" stop-color="#A22657"/><stop offset=".6" stop-color="#C22247"/><stop offset=".74" stop-color="#D51F3E"/><stop offset=".83" stop-color="#DD1E3B"/></linearGradient><linearGradient id="kk" x1="181.053" y1="84.919" x2="957.243" y2="861.497" gradientUnits="userSpaceOnUse"><stop stop-color="#2B3990"/><stop offset=".06" stop-color="#3C3687"/><stop offset=".26" stop-color="#752D6C"/><stop offset=".44" stop-color="#A22657"/><stop offset=".6" stop-color="#C22247"/><stop offset=".74" stop-color="#D51F3E"/><stop offset=".83" stop-color="#DD1E3B"/></linearGradient><linearGradient id="ll" x1="491.358" y1="40.642" x2="1267.55" y2="817.219" gradientUnits="userSpaceOnUse"><stop stop-color="#2B3990"/><stop offset=".06" stop-color="#3C3687"/><stop offset=".26" stop-color="#752D6C"/><stop offset=".44" stop-color="#A22657"/><stop offset=".6" stop-color="#C22247"/><stop offset=".74" stop-color="#D51F3E"/><stop offset=".83" stop-color="#DD1E3B"/></linearGradient><linearGradient id="mm" x1="124.537" y1="-46.285" x2="900.728" y2="730.314" gradientUnits="userSpaceOnUse"><stop stop-color="#2B3990"/><stop offset=".06" stop-color="#3C3687"/><stop offset=".26" stop-color="#752D6C"/><stop offset=".44" stop-color="#A22657"/><stop offset=".6" stop-color="#C22247"/><stop offset=".74" stop-color="#D51F3E"/><stop offset=".83" stop-color="#DD1E3B"/></linearGradient><linearGradient id="nn" x1="272.605" y1="-69.135" x2="1048.78" y2="707.443" gradientUnits="userSpaceOnUse"><stop stop-color="#2B3990"/><stop offset=".06" stop-color="#3C3687"/><stop offset=".26" stop-color="#752D6C"/><stop offset=".44" stop-color="#A22657"/><stop offset=".6" stop-color="#C22247"/><stop offset=".74" stop-color="#D51F3E"/><stop offset=".83" stop-color="#DD1E3B"/></linearGradient><linearGradient id="oo" x1="507.32" y1="-69.135" x2="1283.49" y2="707.443" gradientUnits="userSpaceOnUse"><stop stop-color="#2B3990"/><stop offset=".06" stop-color="#3C3687"/><stop offset=".26" stop-color="#752D6C"/><stop offset=".44" stop-color="#A22657"/><stop offset=".6" stop-color="#C22247"/><stop offset=".74" stop-color="#D51F3E"/><stop offset=".83" stop-color="#DD1E3B"/></linearGradient><linearGradient id="pp" x1="253.611" y1="-3.269" x2="1029.8" y2="773.329" gradientUnits="userSpaceOnUse"><stop stop-color="#2B3990"/><stop offset=".06" stop-color="#3C3687"/><stop offset=".26" stop-color="#752D6C"/><stop offset=".44" stop-color="#A22657"/><stop offset=".6" stop-color="#C22247"/><stop offset=".74" stop-color="#D51F3E"/><stop offset=".83" stop-color="#DD1E3B"/></linearGradient><linearGradient id="qq" x1="353.49" y1="-24.879" x2="1129.66" y2="751.719" gradientUnits="userSpaceOnUse"><stop stop-color="#2B3990"/><stop offset=".06" stop-color="#3C3687"/><stop offset=".26" stop-color="#752D6C"/><stop offset=".44" stop-color="#A22657"/><stop offset=".6" stop-color="#C22247"/><stop offset=".74" stop-color="#D51F3E"/><stop offset=".83" stop-color="#DD1E3B"/></linearGradient></defs></svg>