<svg id="Layer_1" data-name="Layer 1" xmlns="http://www.w3.org/2000/svg" xmlns:xlink="http://www.w3.org/1999/xlink" viewBox="0 0 106 100"><defs><style>.cls-1{fill:none;}.cls-2{fill:#a1a1a1;}.cls-3{fill:#e3e3e3;}.cls-4{fill:#fcfcfc;}.cls-5{fill:url(#linear-gradient);}.cls-6{fill:#f0f0f0;}.cls-7{fill:url(#linear-gradient-2);}.cls-8{fill:url(#linear-gradient-3);}.cls-9{fill:url(#linear-gradient-4);}.cls-10{fill:url(#linear-gradient-5);}.cls-11{fill:url(#linear-gradient-6);}.cls-12{fill:url(#linear-gradient-7);}.cls-13{fill:url(#Bravery_Blocks);}</style><linearGradient id="linear-gradient" x1="111.92" y1="-15896.59" x2="82.9" y2="-15944.87" gradientTransform="matrix(1, 0, 0, -1, 0, -15802.52)" gradientUnits="userSpaceOnUse"><stop offset="0" stop-color="#f0f0f0"/><stop offset="1" stop-color="#fcfcfc"/></linearGradient><linearGradient id="linear-gradient-2" x1="58.77" y1="-15896.59" x2="29.75" y2="-15944.87" xlink:href="#linear-gradient"/><linearGradient id="linear-gradient-3" x1="111.92" y1="-15796.59" x2="82.9" y2="-15844.87" xlink:href="#linear-gradient"/><linearGradient id="linear-gradient-4" x1="58.77" y1="-15796.59" x2="29.75" y2="-15844.87" xlink:href="#linear-gradient"/><linearGradient id="linear-gradient-5" x1="32.1" y1="-15846.59" x2="3.08" y2="-15894.87" xlink:href="#linear-gradient"/><linearGradient id="linear-gradient-6" x1="85.44" y1="-15846.59" x2="56.41" y2="-15894.87" xlink:href="#linear-gradient"/><linearGradient id="linear-gradient-7" x1="138.1" y1="-15846.59" x2="109.08" y2="-15894.87" xlink:href="#linear-gradient"/><pattern id="Bravery_Blocks" data-name="Bravery Blocks" width="106" height="100" patternUnits="userSpaceOnUse" viewBox="0 0 106 100"><rect class="cls-1" width="106" height="100"/><polygon class="cls-2" points="79.07 139.74 52.41 119.63 52.41 89.68 79.07 109.78 79.07 139.74"/><polygon class="cls-3" points="79.07 139.74 52.41 119.63 52.41 89.68 79.07 109.78 79.07 139.74"/><polygon class="cls-4" points="79.07 139.74 105.74 119.63 105.74 89.68 79.07 109.78 79.07 139.74"/><polygon class="cls-5" points="78.9 139.74 105.56 119.63 105.56 89.68 78.9 139.74"/><polygon class="cls-6" points="105.74 89.68 79.07 69.57 52.41 89.68 52.41 89.68 52.41 89.68 79.07 109.78 105.74 89.68 105.74 89.68 105.74 89.68"/><polygon class="cls-2" points="25.92 139.74 -0.75 119.63 -0.75 89.68 25.92 109.78 25.92 139.74"/><polygon class="cls-3" points="25.92 139.74 -0.75 119.63 -0.75 89.68 25.92 109.78 25.92 139.74"/><polygon class="cls-4" points="25.92 139.74 52.59 119.63 52.59 89.68 25.92 109.78 25.92 139.74"/><polygon class="cls-7" points="25.74 139.74 52.41 119.63 52.41 89.68 25.74 139.74"/><polygon class="cls-6" points="52.59 89.68 25.92 69.57 -0.75 89.68 -0.75 89.68 -0.75 89.68 25.92 109.78 52.59 89.68 52.59 89.68 52.59 89.68"/><polygon class="cls-2" points="131.92 139.74 105.25 119.63 105.25 89.68 131.92 109.78 131.92 139.74"/><polygon class="cls-3" points="131.92 139.74 105.25 119.63 105.25 89.68 131.92 109.78 131.92 139.74"/><polygon class="cls-6" points="158.59 89.68 131.92 69.57 105.25 89.68 105.25 89.68 105.25 89.68 131.92 109.78 158.59 89.68 158.59 89.68 158.59 89.68"/><polygon class="cls-2" points="79.07 39.74 52.41 19.63 52.41 -10.32 79.07 9.78 79.07 39.74"/><polygon class="cls-3" points="79.07 39.74 52.41 19.63 52.41 -10.32 79.07 9.78 79.07 39.74"/><polygon class="cls-4" points="79.07 39.74 105.74 19.63 105.74 -10.32 79.07 9.78 79.07 39.74"/><polygon class="cls-8" points="78.9 39.74 105.56 19.63 105.56 -10.32 78.9 39.74"/><polygon class="cls-6" points="105.74 -10.32 79.07 -30.43 52.41 -10.32 52.41 -10.32 52.41 -10.32 79.07 9.78 105.74 -10.32 105.74 -10.32 105.74 -10.32"/><polygon class="cls-2" points="25.92 39.74 -0.75 19.63 -0.75 -10.32 25.92 9.78 25.92 39.74"/><polygon class="cls-3" points="25.92 39.74 -0.75 19.63 -0.75 -10.32 25.92 9.78 25.92 39.74"/><polygon class="cls-4" points="25.92 39.74 52.59 19.63 52.59 -10.32 25.92 9.78 25.92 39.74"/><polygon class="cls-9" points="25.74 39.74 52.41 19.63 52.41 -10.32 25.74 39.74"/><polygon class="cls-6" points="52.59 -10.32 25.92 -30.43 -0.75 -10.32 -0.75 -10.32 -0.75 -10.32 25.92 9.78 52.59 -10.32 52.59 -10.32 52.59 -10.32"/><polygon class="cls-2" points="-0.75 89.74 -27.41 69.63 -27.41 39.68 -0.75 59.78 -0.75 89.74"/><polygon class="cls-3" points="-0.75 89.74 -27.41 69.63 -27.41 39.68 -0.75 59.78 -0.75 89.74"/><polygon class="cls-4" points="-0.75 89.74 25.92 69.63 25.92 39.68 -0.75 59.78 -0.75 89.74"/><polygon class="cls-10" points="-0.92 89.74 25.74 69.63 25.74 39.68 -0.92 89.74"/><polygon class="cls-6" points="25.92 39.68 -0.75 19.57 -27.41 39.68 -27.41 39.68 -27.41 39.68 -0.75 59.78 25.92 39.68 25.92 39.68 25.92 39.68"/><polygon class="cls-2" points="52.59 89.74 25.92 69.63 25.92 39.68 52.59 59.78 52.59 89.74"/><polygon class="cls-3" points="52.59 89.74 25.92 69.63 25.92 39.68 52.59 59.78 52.59 89.74"/><polygon class="cls-4" points="52.59 89.74 79.25 69.63 79.25 39.68 52.59 59.78 52.59 89.74"/><polygon class="cls-11" points="52.41 89.74 79.07 69.63 79.07 39.68 52.41 89.74"/><polygon class="cls-6" points="79.25 39.68 52.59 19.57 25.92 39.68 25.92 39.68 25.92 39.68 52.59 59.78 79.25 39.68 79.25 39.68 79.25 39.68"/><polygon class="cls-2" points="131.92 39.74 105.25 19.63 105.25 -10.32 131.92 9.78 131.92 39.74"/><polygon class="cls-3" points="131.92 39.74 105.25 19.63 105.25 -10.32 131.92 9.78 131.92 39.74"/><polygon class="cls-6" points="158.59 -10.32 131.92 -30.43 105.25 -10.32 105.25 -10.32 105.25 -10.32 131.92 9.78 158.59 -10.32 158.59 -10.32 158.59 -10.32"/><polygon class="cls-2" points="105.25 89.74 78.59 69.63 78.59 39.68 105.25 59.78 105.25 89.74"/><polygon class="cls-3" points="105.25 89.74 78.59 69.63 78.59 39.68 105.25 59.78 105.25 89.74"/><polygon class="cls-4" points="105.25 89.74 131.92 69.63 131.92 39.68 105.25 59.78 105.25 89.74"/><polygon class="cls-12" points="105.08 89.74 131.74 69.63 131.74 39.68 105.08 89.74"/><polygon class="cls-6" points="131.92 39.68 105.25 19.57 78.59 39.68 78.59 39.68 78.59 39.68 105.25 59.78 131.92 39.68 131.92 39.68 131.92 39.68"/></pattern></defs><title>blocks</title><rect class="cls-13" width="106" height="100"/></svg>