<svg fill="none" height="786" viewBox="0 0 1400 786" id="bg-grid"><g stroke="#5bceff" stroke-linecap="round" stroke-linejoin="round" stroke-opacity=".43" stroke-width=".25"><path d="m15.8593 270.432-14.6508 2.937"/><path d="m84.3077 270.432-83.10116 18.491"/><path d="m768.809 270.432 280.251 562.193"/><path d="m974.156 270.432 425.594 213.161"/><path d="m905.707 270.432 494.033 329.973"/><path d="m1042.61 270.432 357.13 143.09"/><path d="m1111.06 270.432 288.68 96.381"/><path d="m1316.41 270.432 83.33 18.545"/><path d="m1247.96 270.432 151.78 38.006"/><path d="m700.361 270.432-.49 562.193"/><path d="m1179.51 270.432 220.23 63.021"/><path d="m1384.86 270.432 14.88 2.984"/><path d="m152.756 270.432-151.5475 37.932"/><path d="m221.205 270.432-219.99748 62.928"/><path d="m495.008 270.432-493.7995 329.438"/><path d="m289.654 270.432-288.4455 96.245"/><path d="m358.11 270.432-356.90248 142.9"/><path d="m426.559 270.432-425.35148 212.862"/><path d="m631.904 270.432-281.216 562.193"/><path d="m563.456 270.432-561.94916 562.193"/><path d="m837.258 270.432 560.982 562.193"/><path d="m1399.74 270.432h-1398.53248"/><path d="m1399.74 352.989h-1398.53248"/><path d="m1399.74 302.157h-1398.53248"/><path d="m1399.74 312.527h-1398.53248"/><path d="m1399.74 324.249h-1398.53248"/><path d="m1399.74 284.65h-1398.53248"/><path d="m1399.74 292.924h-1398.53248"/><path d="m1399.74 685.594h-1398.53248"/><path d="m1399.74 370.869h-1398.53248"/><path d="m1399.74 337.612h-1398.53248"/><path d="m1399.74 277.195h-1398.53248"/><path d="m1399.74 391.925h-1398.53248"/><path d="m1399.74 417.07h-1398.53248"/><path d="m1399.74 597.698h-1398.53248"/><path d="m1399.74 447.635h-1398.53248"/><path d="m1399.74 485.573h-1398.53248"/><path d="m1399.74 533.937h-1398.53248"/></g></svg>