<svg viewBox="0 0 316 83" fill="none" xmlns="http://www.w3.org/2000/svg"><title>SpeedyU Turbo</title><path d="m273.102 34.34 6.236-31.502h-1.215l-6.75 34.09c-.051.278-.114.532-.176.781.922-.413 1.515-1.351 1.905-3.37ZM269.835 53.148h-8.984c-5.919 0-10.544-1.82-13.365-5.257-2.787-3.404-3.663-8.198-2.532-13.863l6.196-31.184h-1.216l-6.71 33.774c-2.098 10.487 3.216 17.096 14.229 17.096h8.984c2.267 0 4.285-.232 6.094-.679-.87.074-1.769.114-2.702.114h.006ZM226.736 31.869l6.965-14.485h-1.362l-5.908 12.28.305 2.204ZM213.052 53.097l-1.029 1.883c.412-.034.825-.068 1.243-.096l2.431-4.455c.973-1.724 1.109-2.454.775-4.138l-5.931-28.907h-2.99l6.36 31.004c.379 1.888.203 2.821-.859 4.71ZM165.167 65.117l2.482-1.136a1062.402 1062.402 0 0 0-38.953 5.077l-.435.062c-.922.413-1.871.831-3.081 1.357a1054.54 1054.54 0 0 1 39.467-5.122l.525-.238h-.005ZM209.643 64.026c-4.116.232-8.119.44-12.059.644-10.759.555-20.924 1.08-31.993 2.064l-.481.045c-.893.413-1.815.843-2.985 1.374 15.174-1.351 28.805-1.843 44.075-2.708 10.532-.6 13.042-.678 13.042-.678l.696-1.29c-1.962.097-5.19.266-10.301.555l.006-.006ZM128.228 67.442c.384-.17.746-.328 1.085-.475a1056.177 1056.177 0 0 0-36.369 6.976l-.017-.05c-1.085.463-2.114.893-3.55 1.48a1060.238 1060.238 0 0 1 36.799-7.038l2.052-.893ZM92.587 72.795a1032.334 1032.334 0 0 0-34.209 8.645A355.2 355.2 0 0 1 54.33 83a1043.08 1043.08 0 0 1 38.438-9.634l-.175-.57h-.006ZM188.068 26.548c-.877 0-1.685.227-2.403.64 3.132.434 5.06 2.956 5.06 6.732a11.42 11.42 0 0 1-.628 3.783c1.431-1.357 2.324-3.511 2.324-6.044 0-3.245-1.589-5.11-4.353-5.11ZM192.229 52.323h-1.758l.062-1.724a13.87 13.87 0 0 1-1.645.933l-.051 1.362h10.312l.113-.565h-7.033v-.006ZM195.695 15.535 198.2 2.911h-1.216l-2.369 11.946c.368.21.73.435 1.08.678ZM182.02 53.013c-9.322 0-15.581-7.021-15.581-17.475 0-4.585.99-8.734 2.753-12.194-2.838 3.742-4.449 8.79-4.449 14.456 0 9.486 5.569 15.779 13.885 15.779 1.577 0 3.008-.204 4.308-.594-.305.017-.605.028-.916.028ZM149.263 27.453h3.042c-.667-1.294-2.047-2.007-3.975-2.007-.972 0-1.837.21-2.595.605 1.431.13 2.629.616 3.522 1.397l.006.005ZM146.792 53.014c-11.624 0-19.742-7.592-19.742-18.47 0-3.872.848-7.524 2.431-10.69-2.663 3.482-4.127 7.982-4.127 12.952 0 10.176 7.564 16.774 18.045 16.774 2.058 0 4.031-.21 5.897-.673-.808.068-1.645.107-2.504.107ZM152.452 37.99h-9.741c.107.204.22.39.35.566h8.871c.181-.175.356-.362.526-.565h-.006ZM155.495 37.99l.944.566h5.247c.039-.192.073-.379.107-.565h-6.298ZM109.807 27.453h3.042c-.667-1.294-2.047-2.007-3.975-2.007-.972 0-1.837.21-2.595.605 1.431.13 2.629.616 3.522 1.397l.006.005ZM107.331 53.014c-11.624 0-19.742-7.592-19.742-18.47 0-3.872.848-7.524 2.43-10.69-2.662 3.482-4.126 7.982-4.126 12.952 0 10.176 7.564 16.774 18.046 16.774 2.057 0 4.03-.21 5.896-.673-.808.068-1.645.107-2.504.107ZM116.038 37.99l.944.566h5.241c.039-.192.073-.379.107-.565h-6.298.006ZM112.99 37.99h-9.741c.107.204.221.39.351.566h8.87c.181-.175.356-.362.526-.565h-.006ZM70.803 33.712c0 1.503-.254 2.888-.695 4.12 1.475-1.356 2.391-3.634 2.391-6.382 0-3.002-1.617-4.935-4.11-4.935-.899 0-1.736.231-2.488.639 2.94.43 4.908 2.968 4.908 6.563l-.006-.005ZM68.87 52.98c-3.81 0-7.078-.934-9.752-2.782l-.395 2.012c1.95.882 4.2 1.335 6.756 1.335 1.588 0 3.098-.21 4.522-.6-.373.023-.752.034-1.13.034ZM42.855 63.975h-2.07l.402-2.024 8.904-44.567h-1.215L39.463 64.54h12.166l.108-.565h-8.882ZM29.998 12.042c-.673 0-1.86.085-2.73.582 3.448.192 6.049 1.917 7.79 4.794l2.098-1.125-.159-.26c-1.611-2.651-3.963-3.997-7.004-3.997l.005.006ZM18.08 31.235l6.977 2.923c2.645 1.102 3.267 2.476 3.267 4.127 0 .102-.011.204-.017.3 1-.51 1.713-1.334 1.713-2.561 0-.77 0-1.634-2.221-2.561l-6.954-2.912c-7.135-2.86-11.07-8.231-11.07-15.117 0-2.556.526-4.913 1.493-7.01-2.08 2.566-3.189 5.772-3.189 9.271 0 6.015 3.403 10.894 10.001 13.54ZM25.011 53.047c-10.73 0-18.837-4.426-22.908-12.46L0 41.655c4.195 8.763 12.754 11.963 21.619 11.963 2.386 0 4.58-.254 6.57-.718a34.088 34.088 0 0 1-3.178.153v-.006Z" fill="#150636"/><path d="M246.624 34.351 253.335.577h13.67l-6.75 34.09c-.702 3.393.452 5.038 3.776 5.038h5.348c3.11 0 4.687-1.436 5.382-5.037l6.751-34.09h13.602l-7.095 35.735c-2.064 10.278-7.519 15.14-18.182 15.14h-8.983c-11.013 0-16.327-6.609-14.23-17.096v-.006ZM227.615 54.794l21.743-39.665h-13.059l-9.21 19.143h-.311l-2.646-19.143H211.52l6.36 31.004c.378 1.888.203 2.82-.86 4.709l-2.657 4.856c-10.606.78-21.2 1.719-31.789 2.821a497.433 497.433 0 0 0 7.394-3.708 1053.669 1053.669 0 0 0-44.097 6.27 422.269 422.269 0 0 0 7.384-3.641 1054.934 1054.934 0 0 0-42.712 8.627 334.065 334.065 0 0 0 6.49-3.104 1000.753 1000.753 0 0 0-45.658 12.11c-5.02 2.193-7.519 3.217-12.517 5.11a1030.888 1030.888 0 0 1 41.384-10.317 259.017 259.017 0 0 1-6.338 2.691 1055.039 1055.039 0 0 1 42.933-8.096 305.547 305.547 0 0 1-7.135 3.2 1056.03 1056.03 0 0 1 44.03-5.63 382.409 382.409 0 0 1-7.079 3.3c15.174-1.35 28.805-1.842 44.075-2.707 10.532-.6 13.043-.679 13.043-.679l3.838-7.129" fill="#FF006C"/><path d="m200.375.656-3.539 17.837h-.244c-2.645-2.646-6.184-4.054-10.656-4.054-10.725 0-17.803 9.21-17.803 21.104 0 9.487 5.568 15.78 13.885 15.78 4.364 0 7.632-1.55 10.103-4.365h.243l-.136 3.68h10.312L212.541.656h-12.166Zm-13.953 40.247c-3.437 0-5.806-2.646-5.806-6.598 0-5.467 3.194-9.452 7.457-9.452 3.714 0 6.049 2.645 6.049 6.806 0 5.258-3.302 9.244-7.7 9.244ZM148.236 14.398c-11.963 0-19.488 8.87-19.488 20.144 0 10.176 7.564 16.774 18.046 16.774 6.292 0 11.754-1.922 15.847-7.079l-8.797-5.257c-1.821 2.267-4.263 3.092-6.564 3.092-3.782 0-6.326-2.063-6.807-5.772h24.61c2.714-12.545-4.195-21.896-16.842-21.896l-.005-.006Zm-6.977 14.745c1.272-3.505 3.748-5.4 7.078-5.4 3.607 0 5.948 2.098 6.117 5.4h-13.2.005ZM108.774 14.398c-11.963 0-19.488 8.87-19.488 20.144 0 10.176 7.564 16.774 18.046 16.774 6.292 0 11.754-1.922 15.847-7.079l-8.797-5.257c-1.82 2.267-4.263 3.092-6.564 3.092-3.782 0-6.326-2.063-6.807-5.772h24.61c2.714-12.545-4.195-21.896-16.842-21.896l-.005-.006Zm-6.977 14.745c1.272-3.505 3.749-5.4 7.078-5.4 3.607 0 5.948 2.098 6.118 5.4h-13.201.005ZM72.79 14.433c-4.364 0-7.632 1.515-10.102 4.331h-.243l.135-3.64H52.268L42.85 62.278h12.166l2.957-15.055h.243c2.646 2.68 6.185 4.053 10.657 4.053 10.656 0 17.802-9.243 17.802-20.969 0-9.622-5.602-15.88-13.885-15.88v.005Zm-6.049 26.43c-3.714 0-6.049-2.611-6.049-6.806 0-5.258 3.302-9.244 7.7-9.244 3.437 0 5.806 2.68 5.806 6.632 0 5.433-3.194 9.418-7.457 9.418ZM35.288 21.551l-7.22-2.99c-2.923-1.205-3.573-2.545-3.573-4.128 0-2.612 2.2-4.087 5.5-4.087 3.783 0 6.599 1.752 8.459 4.811l10.278-5.5C44.774 2.99 37.832 0 29.583 0 18.203 0 11.47 6.807 11.47 15.434c0 6.015 3.403 10.894 10 13.54l6.977 2.923c2.646 1.102 3.268 2.476 3.268 4.127 0 3.16-2.923 4.947-6.705 4.947-4.987 0-8.35-2.335-10.55-7.186L3.39 39.388C7.587 48.15 16.146 51.35 25.01 51.35c13.06 0 20.279-7.491 20.279-16.74 0-5.705-3.16-10.278-10.001-13.06Z" fill="#FF006C"/><path d="M315.834 69.95a5.49 5.49 0 0 1-.232 1.653c-.155.483-.36.91-.615 1.284a4.38 4.38 0 0 1-.888.943 5.294 5.294 0 0 1-1.066.629 5.574 5.574 0 0 1-1.121.369c-.373.073-.729.11-1.066.11h-6.409a5.694 5.694 0 0 1-1.612-.26 4.88 4.88 0 0 1-1.627-.848 5.013 5.013 0 0 1-1.243-1.544c-.328-.638-.492-1.417-.492-2.337v-4.81c0-.911.164-1.681.492-2.31.337-.637.751-1.152 1.243-1.544a4.758 4.758 0 0 1 1.627-.86 5.694 5.694 0 0 1 1.612-.26h6.409c.911 0 1.686.163 2.323.492.638.328 1.153.742 1.545 1.243.391.492.674 1.03.847 1.613a5.48 5.48 0 0 1 .273 1.626v4.81Zm-3.553-4.784c0-.492-.123-.856-.369-1.093s-.601-.355-1.066-.355h-6.382c-.473 0-.833.123-1.079.369-.246.236-.369.587-.369 1.052v4.81c0 .465.123.82.369 1.066.246.246.606.369 1.079.369h6.382c.483 0 .843-.123 1.08-.369.237-.246.355-.601.355-1.066v-4.783ZM297.642 69.95c0 .336-.041.692-.123 1.065a5.324 5.324 0 0 1-.355 1.12 5.065 5.065 0 0 1-.643 1.053 4.23 4.23 0 0 1-.943.902 4.7 4.7 0 0 1-1.271.615 5.352 5.352 0 0 1-1.639.232h-6.41c-.337 0-.692-.036-1.065-.11a5.455 5.455 0 0 1-2.173-.998 4.674 4.674 0 0 1-.902-.942 4.941 4.941 0 0 1-.615-1.284 5.49 5.49 0 0 1-.232-1.654V53.92h3.553v16.03c0 .438.136.788.41 1.052.273.255.614.383 1.024.383h6.41c.446 0 .792-.132 1.038-.396.255-.264.383-.61.383-1.039v-4.81c0-.447-.132-.793-.396-1.039-.265-.255-.606-.382-1.025-.382h-6.41v-3.553h6.41c.337 0 .692.04 1.066.123.373.073.742.19 1.106.355a4.94 4.94 0 0 1 1.066.642c.337.255.634.57.889.943.255.364.46.788.615 1.271.154.483.232 1.03.232 1.64v4.81ZM279.82 63.718h-7.994c-.483 0-.847.123-1.093.369-.246.236-.369.587-.369 1.052v9.798h-3.553V65.14c0-.61.077-1.157.232-1.64.155-.483.36-.907.615-1.27.264-.374.565-.689.902-.944a5.102 5.102 0 0 1 1.052-.642 5.328 5.328 0 0 1 1.121-.355 5.102 5.102 0 0 1 1.065-.123h8.022v3.553ZM264.991 73.147c0 .255-.046.492-.137.71a1.71 1.71 0 0 1-.943.943c-.21.091-.437.137-.683.137h-8.036c-.437 0-.906-.05-1.407-.15-.492-.1-.98-.26-1.462-.479a8.339 8.339 0 0 1-1.408-.847 5.668 5.668 0 0 1-1.175-1.243 6.638 6.638 0 0 1-.82-1.695c-.201-.638-.301-1.357-.301-2.16v-8.198h3.553v8.199c0 .465.078.884.233 1.257a2.935 2.935 0 0 0 1.612 1.558c.374.137.774.205 1.203.205h6.217v-11.22h3.554v12.983ZM246.928 63.717h-6.204v11.22h-3.594v-11.22h-4.619v-3.553h4.619V55.34h3.594v4.824h6.204v3.553Z" fill="#000"/></svg>