<svg viewBox="0 0 384 196" fill="none" xmlns="http://www.w3.org/2000/svg"><title>VHS Logo</title>
<path fill-rule="evenodd" clip-rule="evenodd" d="M383.08 195.52H0.921875V0.479736H383.08V195.52ZM368.228 180.668V15.332H15.7719V180.668H368.228ZM130.121 25.7266L99.9258 156.723L103.391 167.304H71.7094L33.0984 25.7266L63.8832 25.7042L93.1373 131.091L117.416 25.7669L130.121 25.7266ZM209.318 114.833L198.437 126.714H172.695V167.304H142.992V126.714H131.739L142.992 114.833V25.7266H172.692V114.833H209.318ZM239.027 167.304H209.327V25.7266H239.027V167.304ZM355.359 127.644C355.359 140.215 350.592 149.968 341.081 156.898C331.56 163.837 321.71 167.304 311.547 167.304H265.139L260.923 155.423H301.053C311.051 155.423 318.068 153.527 322.091 149.738C326.114 145.948 328.131 141.66 328.131 136.898C328.131 131.703 327.475 127.956 326.175 125.683C324.866 123.406 321.385 120.965 315.74 118.363L278.577 106.01C271.398 103.41 264.986 99.134 259.338 93.1792C253.688 87.2222 250.86 78.1723 250.86 66.0296C250.86 53.2504 255.806 43.3377 265.69 36.2892C275.573 29.2497 287.037 25.7243 300.078 25.7243H352.883L349.622 37.6048H318.929C308.261 37.6048 299.012 39.2386 291.177 42.4861C283.341 45.7336 279.428 51.4822 279.428 59.7118C279.428 67.5155 283.429 73.309 291.434 77.0988C299.435 80.8864 308.579 83.9277 318.848 86.2024C329.122 88.4772 337.775 92.8162 344.81 99.2035C351.838 105.598 355.359 115.078 355.359 127.644Z" fill="currentColor"/>
</svg>
