<svg width="72" height="72" viewBox="0 0 72 72" fill="none" xmlns="http://www.w3.org/2000/svg">
<rect width="72" height="72" fill="#FF006C"/>
<path fill-rule="evenodd" clip-rule="evenodd" d="M64.3798 31.5663V9.54876C64.3722 9.33184 64.3207 9.11872 64.2284 8.92229C64.1361 8.72585 64.0049 8.55018 63.8427 8.4059C63.6806 8.26163 63.4909 8.15174 63.285 8.08289C63.0792 8.01404 62.8615 7.98765 62.6452 8.00534H9.56128C9.34445 8.01122 9.13104 8.06101 8.93398 8.15168C8.73692 8.24236 8.5603 8.37204 8.41476 8.53289C8.26923 8.69374 8.15781 8.88244 8.08724 9.08756C8.01668 9.29268 7.98844 9.50998 8.00421 9.72632V62.6122C7.99039 62.8335 8.02106 63.0553 8.09441 63.2646C8.16776 63.4738 8.2823 63.6663 8.43127 63.8305C8.58024 63.9948 8.7606 64.1275 8.96172 64.2209C9.16285 64.3142 9.38065 64.3663 9.60226 64.3741H62.6247C62.8414 64.3937 63.0597 64.3692 63.2667 64.3022C63.4736 64.2351 63.6649 64.1269 63.8289 63.9839C63.9928 63.841 64.1262 63.6664 64.2209 63.4705C64.3156 63.2747 64.3696 63.0617 64.3798 62.8444V31.5663ZM43.0247 13.5917C43.153 13.225 43.3867 12.9043 43.6965 12.6698C44.0063 12.4354 44.3784 12.2975 44.7662 12.2736H58.4247C58.6489 12.2562 58.8742 12.2875 59.0851 12.3654C59.296 12.4433 59.4875 12.566 59.6465 12.725C59.8055 12.884 59.9282 13.0755 60.0061 13.2864C60.084 13.4973 60.1153 13.7226 60.0979 13.9468V27.8444C60.063 28.2205 59.9209 28.5788 59.6885 28.8766C59.4561 29.1744 59.1431 29.3992 58.7866 29.5244L33.6345 40.2258C33.4941 40.2806 33.3504 40.3262 33.2042 40.3624C32.9465 40.4445 32.6697 40.4445 32.412 40.3624C31.7905 40.0892 32.1389 39.1331 32.3369 38.6824L32.5759 38.1224L43.0247 13.5917ZM12.2793 17.6346V13.9675C12.2793 13.7255 12.2718 13.5566 12.3322 13.3531C12.3925 13.1497 12.4941 12.9608 12.6304 12.7981C12.7668 12.6355 12.9351 12.5026 13.1249 12.4077C13.3148 12.3128 13.522 12.2579 13.734 12.2463H37.172C38.8384 12.2463 38.4832 13.4551 38.3535 13.7829L36.3047 18.5975C36.1052 19.0642 35.7729 19.4619 35.3491 19.7412C34.9253 20.0204 34.4288 20.169 33.9213 20.1683H14.2462C14.2462 20.1683 12.334 20.0658 12.2793 17.6346ZM29.9057 24.4639C30.3327 24.4649 30.7528 24.5715 31.1285 24.7743C31.5043 24.977 31.8241 25.2696 32.0594 25.6259C32.2946 25.9822 32.4381 26.3912 32.477 26.8164C32.5159 27.2416 32.449 27.6698 32.2823 28.0629L30.5954 31.7234C30.394 32.1971 30.0555 32.5997 29.6235 32.8796C29.1915 33.1595 28.6857 33.3038 28.171 33.2941H14.2598C14.2598 33.2941 12.2998 33.2258 12.2862 30.699V26.1644C12.2862 25.8918 12.2812 25.6568 12.3693 25.4187C12.4574 25.1807 12.6024 24.9677 12.7915 24.7985C13.3199 24.4533 13.8049 24.3902 14.5808 24.4092L29.9057 24.4639ZM12.293 47.9361V39.2766C12.293 39.0732 12.2996 38.8562 12.3646 38.6563C12.4296 38.4564 12.5338 38.2715 12.6712 38.1124C12.8087 37.9534 12.9765 37.8234 13.1648 37.7301C13.3532 37.6369 13.5583 37.5821 13.7681 37.5692H26.1974C26.4084 37.5741 26.615 37.6304 26.7994 37.7332C26.9837 37.836 27.1401 37.9822 27.2552 38.1592C27.3702 38.3361 27.4404 38.5384 27.4596 38.7486C27.4787 38.9588 27.4463 39.1705 27.3652 39.3653L26.1086 42.5683C25.7356 43.2887 25.1182 43.8528 24.3671 44.1595L13.2764 48.8785C13.2764 48.8785 12.293 49.1926 12.293 47.9361ZM21.9906 49.7322C22.106 49.67 22.2897 49.6375 22.4208 49.6375C22.5519 49.6375 22.681 49.67 22.7964 49.7322C23.0286 49.9234 22.892 50.2649 22.7964 50.4902L19.2384 58.938C19.0575 59.3046 18.7757 59.6119 18.426 59.8237C18.0763 60.0354 17.6734 60.1428 17.2647 60.1331H13.8501C13.6331 60.1412 13.4169 60.1025 13.2161 60.0197C13.0153 59.9369 12.8347 59.812 12.6864 59.6533C12.5381 59.4947 12.4256 59.306 12.3566 59.1002C12.2875 58.8943 12.2862 58.6809 12.2862 58.46V55.3049C12.2784 54.9207 12.3754 54.5416 12.5667 54.2084C12.758 53.8751 13.0364 53.6002 13.372 53.4132L21.9906 49.7322ZM24.6676 60.0853C23.4042 60.0853 23.5886 59.2931 23.6501 59.1019L28.3213 48.1205C28.631 47.4017 29.1653 46.8026 29.8442 46.4132L33.1086 45.1292C33.3035 45.0498 33.5148 45.0187 33.7243 45.0386C33.9339 45.0585 34.1355 45.1288 34.3119 45.2436C34.4884 45.3583 34.6345 45.5141 34.7377 45.6975C34.8409 45.8809 34.8982 46.0867 34.9047 46.297V58.5897C34.882 58.8811 34.7831 59.1614 34.6179 59.4024C34.4569 59.6325 34.2387 59.8165 33.9848 59.9363C33.7308 60.0561 33.45 60.1075 33.1701 60.0853H24.6676ZM48.0442 58.5009C48.0432 58.7214 47.9964 58.9392 47.9068 59.1406C47.8172 59.3421 47.6867 59.5226 47.5236 59.671C47.3605 59.8193 47.1684 59.9321 46.9594 60.0023C46.7504 60.0724 46.5291 60.0984 46.3096 60.0785H41.7681C40.5047 60.0785 39.2071 59.3956 39.1662 58.0297C39.1662 58.0297 39.0569 48.981 39.0774 44.337C39.0731 43.8235 39.2196 43.3201 39.4988 42.8891C39.7781 42.4581 40.1777 42.1186 40.6481 41.9127L44.411 40.2258C44.8041 40.0591 45.2323 39.9922 45.6575 40.0311C46.0827 40.07 46.4917 40.2135 46.848 40.4487C47.2043 40.684 47.4969 41.0038 47.6996 41.3796C47.9024 41.7553 48.009 42.1754 48.0101 42.6024L48.0442 58.5009ZM54.9349 60.0853C52.4013 60.0853 52.3398 58.1117 52.333 58.1185L52.2988 38.5663C52.2981 38.0588 52.4467 37.5623 52.726 37.1385C53.0052 36.7147 53.4029 36.3824 53.8696 36.1829L58.5749 34.1751C58.8959 34.0522 60.1115 33.7039 60.1047 35.3292C60.1047 42.9279 60.1047 50.5312 60.1047 58.139C60.1047 59.3136 59.6062 60.0512 58.3769 60.0922" fill="white"/>
</svg>
