<svg width="312" height="312" viewBox="0 0 312 312" fill="none" xmlns="http://www.w3.org/2000/svg">
<path fill-rule="evenodd" clip-rule="evenodd" d="M311.096 130.036V8.54582C311.054 7.34892 310.77 6.17296 310.26 5.08906C309.751 4.00515 309.027 3.03582 308.132 2.23972C307.237 1.44362 306.191 0.837255 305.055 0.457352C303.919 0.0774481 302.718 -0.0681226 301.524 0.0294398H8.61495C7.41846 0.0619249 6.24093 0.33664 5.15359 0.836964C4.06624 1.33729 3.09165 2.05285 2.28861 2.94041C1.48558 3.82798 0.870765 4.86918 0.4814 6.001C0.0920342 7.13283 -0.0637841 8.33185 0.0232431 9.52561V301.342C-0.0530373 302.563 0.116232 303.787 0.52096 304.942C0.925687 306.097 1.5577 307.159 2.37969 308.065C3.20168 308.971 4.19687 309.703 5.30665 310.219C6.41643 310.734 7.61825 311.021 8.84103 311.064H301.411C302.607 311.172 303.812 311.037 304.954 310.667C306.096 310.297 307.151 309.7 308.056 308.911C308.961 308.123 309.696 307.159 310.219 306.078C310.741 304.998 311.04 303.822 311.096 302.623V130.036ZM193.261 30.8542C193.969 28.8307 195.259 27.0612 196.968 25.7674C198.678 24.4737 200.731 23.7132 202.87 23.5813H278.236C279.473 23.485 280.716 23.6578 281.88 24.0877C283.044 24.5177 284.101 25.1946 284.978 26.0719C285.855 26.9492 286.532 28.006 286.962 29.1698C287.392 30.3336 287.565 31.5767 287.469 32.8136V109.498C287.276 111.574 286.492 113.551 285.21 115.194C283.927 116.837 282.2 118.078 280.233 118.768L141.447 177.818C140.673 178.12 139.88 178.372 139.073 178.571C137.651 179.024 136.124 179.024 134.702 178.571C131.273 177.064 133.195 171.788 134.288 169.301L135.606 166.211L193.261 30.8542ZM23.6128 53.1624V32.928C23.6128 31.5923 23.571 30.6604 23.9042 29.5378C24.2374 28.4151 24.7976 27.3728 25.5501 26.4755C26.3025 25.5781 27.2312 24.8449 28.2787 24.3212C29.3261 23.7974 30.4698 23.4943 31.6392 23.4306H160.967C170.162 23.4306 168.202 30.1005 167.486 31.9093L156.181 58.4757C155.08 61.0506 153.247 63.245 150.908 64.786C148.57 66.327 145.83 67.1465 143.03 67.1427H34.4654C34.4654 67.1427 23.9143 66.5775 23.6128 53.1624ZM120.872 90.8453C123.228 90.851 125.546 91.4394 127.62 92.5581C129.693 93.6769 131.458 95.2912 132.756 97.2572C134.054 99.2233 134.846 101.48 135.061 103.826C135.275 106.172 134.906 108.535 133.986 110.704L124.678 130.902C123.567 133.516 121.699 135.738 119.315 137.282C116.932 138.827 114.141 139.623 111.301 139.569H34.5408C34.5408 139.569 23.7258 139.193 23.6504 125.25V100.228C23.6504 98.7246 23.6232 97.4276 24.1092 96.114C24.5953 94.8004 25.3951 93.6255 26.439 92.6917C29.3542 90.7868 32.0305 90.439 36.3119 90.5439L120.872 90.8453ZM23.6881 220.362V172.58C23.6881 171.457 23.7248 170.26 24.0833 169.157C24.4417 168.054 25.017 167.034 25.7752 166.156C26.5335 165.279 27.4595 164.561 28.4989 164.047C29.5382 163.532 30.67 163.23 31.8276 163.159H100.411C101.575 163.186 102.715 163.496 103.732 164.064C104.749 164.631 105.613 165.438 106.247 166.414C106.882 167.39 107.269 168.507 107.375 169.667C107.481 170.826 107.302 171.994 106.854 173.069L99.9207 190.743C97.8624 194.718 94.4559 197.831 90.3115 199.523L29.1145 225.562C29.1145 225.562 23.6881 227.295 23.6881 220.362ZM77.1979 230.272C77.8349 229.929 78.8484 229.75 79.5718 229.75C80.2953 229.75 81.0075 229.929 81.6445 230.272C82.9257 231.327 82.172 233.211 81.6445 234.455L62.0117 281.069C61.0138 283.092 59.4585 284.787 57.529 285.956C55.5996 287.124 53.3763 287.716 51.1213 287.663H32.2798C31.0824 287.708 29.8894 287.494 28.7817 287.037C27.6739 286.581 26.6771 285.891 25.8588 285.016C25.0406 284.14 24.42 283.099 24.039 281.963C23.658 280.827 23.6504 279.65 23.6504 278.431V261.021C23.6078 258.902 24.143 256.81 25.1985 254.971C26.254 253.132 27.79 251.616 29.642 250.583L77.1979 230.272ZM91.9696 287.399C84.9982 287.399 86.0157 283.028 86.3548 281.973L112.13 221.379C113.839 217.413 116.787 214.107 120.533 211.958L138.546 204.874C139.621 204.436 140.787 204.264 141.943 204.374C143.099 204.484 144.212 204.872 145.186 205.505C146.159 206.138 146.965 206.997 147.535 208.009C148.104 209.022 148.421 210.157 148.456 211.318V279.147C148.331 280.755 147.785 282.301 146.874 283.631C145.986 284.901 144.781 285.916 143.38 286.577C141.979 287.238 140.429 287.522 138.885 287.399H91.9696ZM220.958 278.657C220.953 279.873 220.695 281.075 220.2 282.187C219.706 283.298 218.985 284.295 218.086 285.113C217.186 285.931 216.126 286.554 214.972 286.941C213.819 287.328 212.598 287.471 211.387 287.362H186.328C179.356 287.362 172.197 283.593 171.97 276.057C171.97 276.057 171.368 226.127 171.481 200.503C171.457 197.669 172.265 194.891 173.806 192.513C175.347 190.135 177.552 188.262 180.148 187.125L200.911 177.818C203.08 176.898 205.443 176.528 207.789 176.743C210.135 176.958 212.392 177.749 214.358 179.047C216.324 180.346 217.938 182.11 219.057 184.184C220.176 186.257 220.764 188.575 220.77 190.931L220.958 278.657ZM258.98 287.399C245 287.399 244.661 276.509 244.623 276.547L244.435 168.661C244.431 165.86 245.25 163.12 246.791 160.782C248.332 158.444 250.527 156.61 253.102 155.509L279.065 144.43C280.836 143.752 287.544 141.83 287.506 150.799C287.506 192.727 287.506 234.681 287.506 276.66C287.506 283.141 284.755 287.211 277.973 287.437" fill="url(#paint0_linear_703_17)"/>
<defs>
<linearGradient id="paint0_linear_703_17" x1="165.733" y1="-462.533" x2="776.261" y2="-35.5929" gradientUnits="userSpaceOnUse">
<stop stop-color="#FFF500"/>
<stop offset="0.651028" stop-color="#FF00C7"/>
<stop offset="1" stop-color="#6B4DE0"/>
</linearGradient>
</defs>
</svg>
