<svg viewBox="0 0 1729 184" fill="none" xmlns="http://www.w3.org/2000/svg"><filter id="a"><feGaussianBlur in="SourceGraphic" stdDeviation="14"/></filter><g class="gridplane" stroke="currentColor" stroke-width=".5" stroke-linecap="round" stroke-linejoin="round"><path d="M19.1 1.337 1.002 4.965M103.655 1.337 1 24.18M949.224 1.337 1039.5 182.5M1202.89 1.337 1566 182.5M1118.33 1.337 1389.5 182.5M1287.46 1.337l441.16 176.761M1372.01 1.337l356.61 119.061M1625.68 1.337l102.94 22.909M1541.12 1.337l187.5 46.949M864.669 1.337v180.969M1456.56 1.337l272.06 77.85M1710.24 1.337l18.38 3.687M188.209 1.337 1.002 48.195M272.766 1.337 1.001 79.073M610.995 1.337 340 182.5M357.321 1.337 1.001 120.23M441.885 1.337 1.001 177.862M526.44 1.337 166.5 182.5M780.105 1.337 689 182.5M695.55 1.337 514 182.5M1033.78 1.337 1214.5 182.5M1728.62 1.338H1.001M1728.62 103.321H1.001M1728.62 40.527H1.001M1728.62 53.338H1.001M1728.62 67.818H1.001M1728.62 18.9H1.001M1728.62 29.122H1.001M1728.62 125.408H1.001M1728.62 84.326H1.001M1728.62 9.691H1.001M1728.62 151.418H1.001M1728.62 182.48H1.001"/></g><g class="grid-blur" filter="url(#a)" stroke="currentColor" stroke-width=".5" stroke-linecap="round" stroke-linejoin="round"><path d="M19.1 1.337 1.002 4.965M103.655 1.337 1 24.18M949.224 1.337 1039.5 182.5M1202.89 1.337 1566 182.5M1118.33 1.337 1389.5 182.5M1287.46 1.337l441.16 176.761M1372.01 1.337l356.61 119.061M1625.68 1.337l102.94 22.909M1541.12 1.337l187.5 46.949M864.669 1.337v180.969M1456.56 1.337l272.06 77.85M1710.24 1.337l18.38 3.687M188.209 1.337 1.002 48.195M272.766 1.337 1.001 79.073M610.995 1.337 340 182.5M357.321 1.337 1.001 120.23M441.885 1.337 1.001 177.862M526.44 1.337 166.5 182.5M780.105 1.337 689 182.5M695.55 1.337 514 182.5M1033.78 1.337 1214.5 182.5M1728.62 1.338H1.001M1728.62 103.321H1.001M1728.62 40.527H1.001M1728.62 53.338H1.001M1728.62 67.818H1.001M1728.62 18.9H1.001M1728.62 29.122H1.001M1728.62 125.408H1.001M1728.62 84.326H1.001M1728.62 9.691H1.001M1728.62 151.418H1.001M1728.62 182.48H1.001"/></g></svg>