<svg viewBox="0 0 836 328" fill="none" xmlns="http://www.w3.org/2000/svg">
<title>The Archives</title>
<path d="M3.64315 130.013H28.1597V201.126H76.0928V130.013H100.609V87H3.64315V130.013Z" fill="currentColor"/>
<path d="M153.179 87H105.717V201.126H153.179V163.058H166.223V201.126H213.684V87H166.223V124.99H153.179V87Z" fill="currentColor"/>
<path d="M300.671 201.126V167.689H266.646V158.898H287.156V129.228H266.646V120.437H300.671V87H219.971V201.126H300.671Z" fill="currentColor"/>
<path d="M71.6639 326.43H121.247L83.215 212.304H38.1107L0 326.43H42.7469L45.6543 316.854H68.835L71.6639 326.43ZM56.9696 279.179H57.6768L62.8631 296.682H51.7049L56.9696 279.179Z" fill="currentColor"/>
<path d="M173.109 300.371C176.802 300.371 177.981 301.235 179.238 304.217L183.167 313.636C186.939 322.741 193.147 326.43 206.269 326.43H231.572V287.577H226.7C223.085 287.577 222.221 287.028 220.885 284.124L218.292 278.394C217.742 277.138 217.113 276.039 216.485 275.019V274.469C227.093 268.661 232.279 259.085 232.279 247.704C232.279 227.296 218.449 212.304 187.646 212.304H123.29V326.43H169.809V300.371H173.109ZM176.567 249.666C182.931 249.666 185.839 252.492 185.839 257.986C185.839 263.48 182.853 266.777 176.881 266.777H169.966V249.666H176.567Z" fill="currentColor"/>
<path d="M233.929 269.524C233.929 304.767 258.289 328 294.278 328C325.316 328 348.497 310.889 353.448 280.513L308.815 272.899C307.479 281.219 302.843 285.536 296.321 285.536C288.227 285.536 283.434 279.179 283.434 269.524C283.434 259.87 288.227 253.512 296.321 253.512C302.843 253.512 307.479 257.751 308.815 266.071L353.448 256.024C348.104 226.904 325.316 210.735 294.278 210.735C258.289 210.735 233.929 234.282 233.929 269.524Z" fill="currentColor"/>
<path d="M405.231 212.304H357.769V326.43H405.231V288.362H418.275V326.43H465.737V212.304H418.275V250.294H405.231V212.304Z" fill="currentColor"/>
<path d="M518.699 212.304H472.023V326.43H518.699V212.304Z" fill="currentColor"/>
<path d="M571.975 212.304H520.663L558.695 326.43H603.721L641.753 212.304H595.077L583.683 259.634H583.133L571.975 212.304Z" fill="currentColor"/>
<path d="M724.497 326.43V292.993H690.472V284.202H710.981V254.533H690.472V245.742H724.497V212.304H643.796V326.43H724.497Z" fill="currentColor"/>
<path d="M731.333 247.625C731.333 267.797 745.32 279.493 764.572 284.202L779.58 287.891C786.731 289.618 788.46 290.874 788.46 293.229C788.46 295.583 785.474 296.996 780.523 296.996C773.137 296.996 767.872 294.092 764.729 287.106L726.775 299.586C735.733 319.523 756.164 328 781.545 328C814.391 328 836 314.029 836 289.304C836 271.173 825.47 259.163 802.761 253.905L786.181 250.059C776.594 247.861 775.023 246.605 775.023 244.721C775.023 242.68 777.144 241.268 781.623 241.268C788.538 241.268 794.275 244.486 797.182 250.137L831.757 236.794C821.856 219.133 804.804 210.735 781.152 210.735C750.742 210.735 731.333 224.784 731.333 247.625Z" fill="currentColor"/>
<g class="icon-sm">
<path d="M409.162 142.344C408.668 142.619 408.123 142.756 407.578 142.756C407.033 142.756 406.488 142.619 405.994 142.344L307 87.0244V197.912C307 199.704 308.451 201.157 310.244 201.157H504.912L504.917 201.155C505.301 201.154 505.671 201.063 506.029 200.931C506.118 200.898 506.203 200.866 506.289 200.825C506.621 200.669 506.937 200.475 507.204 200.208C507.209 200.203 507.211 200.197 507.216 200.192C507.411 199.995 507.587 199.772 507.732 199.518C507.764 199.461 507.762 199.397 507.791 199.339C507.886 199.148 507.934 198.943 507.991 198.733C508.048 198.518 508.108 198.312 508.12 198.093C508.123 198.03 508.156 197.976 508.156 197.912V87.0244L409.162 142.344Z" fill="currentColor"/>
<path d="M482.2 94.0937L503.333 82.284L482.2 70.0276V94.0937Z" fill="currentColor"/>
<path d="M332.956 70.0276L311.823 82.284L332.956 94.0937V70.0276Z" fill="currentColor"/>
<path fill-rule="evenodd" clip-rule="evenodd" d="M472.086 0C473.879 0 475.331 1.45272 475.331 3.24445V97.7194L407.197 135.795L339.063 97.7194V3.24445C339.063 1.45272 340.515 0 342.308 0H472.086ZM419.245 45.4939C419.4 45.5219 419.547 45.5865 419.671 45.6823C426.741 51.1149 429.823 59.8897 428.835 71.764C427.989 81.9145 422.152 88.0717 415.101 90.7802C414.79 82.0563 412.056 75.1384 406.958 70.2005C406.822 70.0677 406.65 69.977 406.462 69.9396C406.275 69.9022 406.081 69.9196 405.904 69.9898C405.726 70.0599 405.573 70.1798 405.463 70.3347C405.353 70.4897 405.291 70.673 405.284 70.8625C405.119 75.0073 403.346 77.901 401.467 80.9671L401.461 80.9759C399.688 83.8701 397.87 86.8583 397.487 90.9103C387.582 87.1614 383.689 77.1585 383.62 69.9444C383.521 59.7401 392.737 50.5038 396.702 47.0062C401.023 43.1948 403.314 38.9472 403.314 34.7222C403.314 34.5473 403.361 34.3756 403.451 34.225C403.54 34.0745 403.669 33.9506 403.823 33.8662C403.977 33.7818 404.152 33.74 404.328 33.7453C404.504 33.7505 404.675 33.8025 404.824 33.8959C409.34 36.7315 412.21 41.5012 413.124 47.6829C413.406 49.6342 413.499 51.608 413.401 53.577C415.516 51.4828 417.132 48.9459 418.133 46.1516C418.182 46.0028 418.267 45.8679 418.379 45.7582C418.492 45.6485 418.629 45.5672 418.78 45.5212C418.931 45.4752 419.09 45.4658 419.245 45.4939Z" fill="currentColor"/>
</g>
</svg>
