<svg viewBox="0 0 1001 805" fill="none" xmlns="http://www.w3.org/2000/svg"><title>Higher Ed Hot Takes</title><path d="M81.273 2.73H2.234V193h79.04v-63.467h21.722V193h79.039V2.73h-79.039v63.336H81.273V2.73ZM270.234 2.73h-77.73V193h77.73V2.73ZM378.979 87.004v30.49h22.376c-1.57 7.459-8.636 12.17-18.712 12.17-15.965 0-23.424-12.432-23.424-30.098 0-17.273 7.328-29.443 22.508-29.443 8.505 0 14.787 3.926 18.451 12.693l70.14-25.779C458.148 22.49 423.732.113 379.502.113c-59.541 0-101.416 37.95-101.416 97.883 0 59.803 38.734 97.621 93.172 97.621 23.554 0 41.09-7.328 52.344-19.367h1.57l5.627 16.75h43.314V87.004h-95.134ZM562.836 2.73h-79.039V193h79.039v-63.467h21.723V193h79.039V2.73h-79.039v63.336h-21.723V2.73ZM808.459 193v-55.746h-56.662v-14.656h34.154V73.133h-34.154V58.477h56.662V2.73H674.066V193h134.393ZM817.75 2.73V193h77.73v-47.109h7.329L916.941 193h83.619l-23.947-64.383c14.657-12.17 22.77-30.49 22.77-53.39 0-47.24-29.444-72.497-78.516-72.497H817.75Zm88.723 62.29c11.515 0 15.441 4.841 15.441 13.87 0 9.03-4.057 14.657-15.703 14.657H895.48V65.019h10.993ZM136.627 396v-55.746H79.965v-14.656h34.154v-49.465H79.965v-14.656h56.662V205.73H2.234V396h134.393ZM235.949 396c54.83 0 97.49-34.285 97.49-94.873 0-60.588-43.707-95.397-100.107-95.397h-87.414V396h90.031Zm-6.15-119.998c14.394 0 24.601 9.16 24.601 24.732 0 15.704-10.207 24.995-24.732 24.995h-7.328v-49.727h7.459ZM81.273 408.73H2.234V599h79.04v-63.467h21.722V599h79.039V408.73h-79.039v63.336H81.273V408.73ZM293.527 601.617c57.186 0 104.95-36.771 104.95-97.49 0-60.719-47.895-98.014-104.95-98.014-57.054 0-103.64 37.295-103.64 98.014 0 60.719 46.455 97.49 103.64 97.49Zm.131-71.318c-14.133 0-22.638-10.731-22.638-26.172s8.636-26.695 22.638-26.695c14.002 0 23.293 11.254 23.293 26.695s-9.16 26.172-23.293 26.172ZM404.365 480.441h40.828V599h79.825V480.441h40.828V408.73H404.365v71.711ZM.271 683.441H41.1V802h79.824V683.441h40.828V611.73H.272v71.711ZM249.689 802h82.573l-63.336-190.27h-75.114L130.346 802h71.187l4.842-15.965h38.604l4.71 15.965Zm-24.47-78.777h1.177l8.637 29.181h-18.582l8.768-29.181ZM442.184 802h90.031l-57.709-119.344 54.961-70.926h-85.582l-28.92 45.801h-1.57V611.73h-77.731V802h77.731v-55.092l2.355-3.271h2.225L442.184 802ZM669.225 802v-55.746h-56.663v-14.656h34.155v-49.465h-34.155v-14.656h56.663V611.73H534.832V802h134.393ZM680.609 670.617c0 33.631 23.293 53.129 55.354 60.981l24.994 6.15c11.908 2.879 14.787 4.973 14.787 8.898 0 3.926-4.973 6.282-13.217 6.282-12.3 0-21.068-4.842-26.302-16.489l-63.205 20.807c14.918 33.238 48.941 47.371 91.209 47.371 54.699 0 90.685-23.293 90.685-64.513 0-30.229-17.535-50.25-55.353-59.018l-27.612-6.412c-15.965-3.664-18.582-5.758-18.582-8.899 0-3.402 3.533-5.757 10.992-5.757 11.516 0 21.069 5.365 25.911 14.787l57.578-22.246c-16.489-29.444-44.885-43.446-84.274-43.446-50.642 0-82.965 23.424-82.965 61.504Z" fill="currentColor"/></svg>