<svg viewBox="0 0 80 80" id="ui-mask" width="100%" height="100%" fill="#000000" xmlns="http://www.w3.org/2000/svg">
<path d="M22.54 79.9701C19.58 79.9701 16.649 79.387 13.9143 78.2543C11.1796 77.1216 8.69484 75.4613 6.60181 73.3683C4.50877 71.2753 2.84856 68.7905 1.71582 66.0558C0.583079 63.3211 0 60.3901 0 57.4301V1.99695e-05C5.97625 1.93813e-05 11.7079 2.37338 15.9347 6.59829C20.1615 10.8232 22.5374 16.5538 22.54 22.53V79.9701ZM79.97 22.53C79.9687 19.5684 79.3837 16.636 78.2485 13.9005C77.1133 11.1651 75.4502 8.68015 73.3541 6.58779C71.258 4.49542 68.7701 2.83655 66.0326 1.7062C63.2951 0.575846 60.3617 -0.00392222 57.4 1.99695e-05V57.4301C57.4 60.3901 57.983 63.3211 59.1157 66.0558C60.2485 68.7905 61.9088 71.2753 64.0018 73.3683C66.0949 75.4613 68.5797 77.1216 71.3143 78.2543C74.049 79.387 76.9801 79.9701 79.9401 79.9701L79.97 22.53ZM28.72 79.9701C34.6962 79.9675 40.4268 77.5916 44.6517 73.3648C48.8766 69.138 51.25 63.4063 51.25 57.4301V1.99695e-05C45.2747 1.99695e-05 39.544 2.3737 35.3188 6.5989C31.0937 10.8241 28.72 16.5547 28.72 22.53V79.9701Z" fill="#FFFFFF"/>
</svg>