<svg viewBox="0 0 1623 483" fill="none" xmlns="http://www.w3.org/2000/svg" class="sun-glitch"><title>Half a sun shape with a glitch effect on it</title><path d="M309.772 34.904h946.948a501.637 501.637 0 0 0 9.43-33.145H300.366a488.532 488.532 0 0 0 9.43 33.145h-.024Z" fill="url(#a)"/><path d="M455.044 255.99h656.406a495.142 495.142 0 0 0 34.24-33.146H420.826a508.478 508.478 0 0 0 34.242 33.146h-.024Z" fill="url(#b)"/><path d="M531.366 311.274h503.784a497.15 497.15 0 0 0 49.28-33.146H482.085a500.582 500.582 0 0 0 49.281 33.146Z" fill="url(#c)"/><path d="M361.184 145.447h844.146a501.23 501.23 0 0 0 18.99-33.145H342.226a497.024 497.024 0 0 0 18.982 33.145h-.024Z" fill="url(#d)"/><path d="M331.326 90.164h903.864c5-10.836 9.6-21.893 13.84-33.146H317.512c4.213 11.253 8.842 22.285 13.839 33.146h-.025Z" fill="url(#e)"/><path d="M783.259 379.771c74.975 0 146.056-16.622 209.813-46.36H573.446c63.757 29.738 134.838 46.36 209.813 46.36Z" fill="url(#f)"/><path opacity=".3" d="M554.512 34.904h946.948a501.637 501.637 0 0 0 9.43-33.145H545.106a488.532 488.532 0 0 0 9.43 33.145h-.024Z" fill="url(#g)"/><path opacity=".4" d="M153.845 255.99h656.406a496.75 496.75 0 0 0 34.242-33.146h-724.89a508.24 508.24 0 0 0 34.242 33.146Z" fill="url(#h)"/><path opacity=".3" d="M380.754 311.274H884.54a497.633 497.633 0 0 0 49.281-33.146H331.473a500.463 500.463 0 0 0 49.281 33.146Z" fill="url(#i)"/><path opacity=".4" d="M663.142 311.274h503.788c17.12-10.077 33.55-21.158 49.28-33.146H613.86a500.477 500.477 0 0 0 49.282 33.146Z" fill="url(#j)"/><path opacity=".3" d="M267.055 145.447H1111.2a500.997 500.997 0 0 0 18.99-33.146H248.097a497.487 497.487 0 0 0 18.982 33.146h-.024Z" fill="url(#k)"/><path d="M401.206 200.731h764.104a490.479 490.479 0 0 0 25.35-33.146H375.855a513.094 513.094 0 0 0 25.351 33.146Z" fill="url(#l)"/><defs><linearGradient id="a" x1="465.527" y1="331.622" x2="1400.71" y2="-602.689" gradientUnits="userSpaceOnUse"><stop stop-color="#2B3990"/><stop offset=".06" stop-color="#3C3687"/><stop offset=".26" stop-color="#752D6C"/><stop offset=".44" stop-color="#A22657"/><stop offset=".6" stop-color="#C22247"/><stop offset=".74" stop-color="#D51F3E"/><stop offset=".83" stop-color="#DD1E3B"/></linearGradient><linearGradient id="b" x1="570.14" y1="436.354" x2="1505.33" y2="-497.981" gradientUnits="userSpaceOnUse"><stop stop-color="#2B3990"/><stop offset=".06" stop-color="#3C3687"/><stop offset=".26" stop-color="#752D6C"/><stop offset=".44" stop-color="#A22657"/><stop offset=".6" stop-color="#C22247"/><stop offset=".74" stop-color="#D51F3E"/><stop offset=".83" stop-color="#DD1E3B"/></linearGradient><linearGradient id="c" x1="597.671" y1="463.886" x2="1532.86" y2="-470.425" gradientUnits="userSpaceOnUse"><stop stop-color="#2B3990"/><stop offset=".06" stop-color="#3C3687"/><stop offset=".26" stop-color="#752D6C"/><stop offset=".44" stop-color="#A22657"/><stop offset=".6" stop-color="#C22247"/><stop offset=".74" stop-color="#D51F3E"/><stop offset=".83" stop-color="#DD1E3B"/></linearGradient><linearGradient id="d" x1="518.36" y1="384.527" x2="1453.55" y2="-549.808" gradientUnits="userSpaceOnUse"><stop stop-color="#2B3990"/><stop offset=".06" stop-color="#3C3687"/><stop offset=".26" stop-color="#752D6C"/><stop offset=".44" stop-color="#A22657"/><stop offset=".6" stop-color="#C22247"/><stop offset=".74" stop-color="#D51F3E"/><stop offset=".83" stop-color="#DD1E3B"/></linearGradient><linearGradient id="e" x1="492.054" y1="358.173" x2="1427.22" y2="-576.163" gradientUnits="userSpaceOnUse"><stop stop-color="#2B3990"/><stop offset=".06" stop-color="#3C3687"/><stop offset=".26" stop-color="#752D6C"/><stop offset=".44" stop-color="#A22657"/><stop offset=".6" stop-color="#C22247"/><stop offset=".74" stop-color="#D51F3E"/><stop offset=".83" stop-color="#DD1E3B"/></linearGradient><linearGradient id="f" x1="625.299" y1="491.539" x2="1560.49" y2="-442.796" gradientUnits="userSpaceOnUse"><stop stop-color="#2B3990"/><stop offset=".06" stop-color="#3C3687"/><stop offset=".26" stop-color="#752D6C"/><stop offset=".44" stop-color="#A22657"/><stop offset=".6" stop-color="#C22247"/><stop offset=".74" stop-color="#D51F3E"/><stop offset=".83" stop-color="#DD1E3B"/></linearGradient><linearGradient id="g" x1="710.267" y1="331.622" x2="1645.45" y2="-602.689" gradientUnits="userSpaceOnUse"><stop stop-color="#2B3990"/><stop offset=".06" stop-color="#3C3687"/><stop offset=".26" stop-color="#752D6C"/><stop offset=".44" stop-color="#A22657"/><stop offset=".6" stop-color="#C22247"/><stop offset=".74" stop-color="#D51F3E"/><stop offset=".83" stop-color="#DD1E3B"/></linearGradient><linearGradient id="h" x1="268.94" y1="436.354" x2="1204.13" y2="-497.981" gradientUnits="userSpaceOnUse"><stop stop-color="#2B3990"/><stop offset=".06" stop-color="#3C3687"/><stop offset=".26" stop-color="#752D6C"/><stop offset=".44" stop-color="#A22657"/><stop offset=".6" stop-color="#C22247"/><stop offset=".74" stop-color="#D51F3E"/><stop offset=".83" stop-color="#DD1E3B"/></linearGradient><linearGradient id="i" x1="447.083" y1="463.886" x2="1382.25" y2="-470.425" gradientUnits="userSpaceOnUse"><stop stop-color="#2B3990"/><stop offset=".06" stop-color="#3C3687"/><stop offset=".26" stop-color="#752D6C"/><stop offset=".44" stop-color="#A22657"/><stop offset=".6" stop-color="#C22247"/><stop offset=".74" stop-color="#D51F3E"/><stop offset=".83" stop-color="#DD1E3B"/></linearGradient><linearGradient id="j" x1="729.47" y1="463.886" x2="1664.63" y2="-470.425" gradientUnits="userSpaceOnUse"><stop stop-color="#2B3990"/><stop offset=".06" stop-color="#3C3687"/><stop offset=".26" stop-color="#752D6C"/><stop offset=".44" stop-color="#A22657"/><stop offset=".6" stop-color="#C22247"/><stop offset=".74" stop-color="#D51F3E"/><stop offset=".83" stop-color="#DD1E3B"/></linearGradient><linearGradient id="k" x1="424.231" y1="384.527" x2="1359.42" y2="-549.808" gradientUnits="userSpaceOnUse"><stop stop-color="#2B3990"/><stop offset=".06" stop-color="#3C3687"/><stop offset=".26" stop-color="#752D6C"/><stop offset=".44" stop-color="#A22657"/><stop offset=".6" stop-color="#C22247"/><stop offset=".74" stop-color="#D51F3E"/><stop offset=".83" stop-color="#DD1E3B"/></linearGradient><linearGradient id="l" x1="544.396" y1="410.564" x2="1479.56" y2="-523.772" gradientUnits="userSpaceOnUse"><stop stop-color="#2B3990"/><stop offset=".06" stop-color="#3C3687"/><stop offset=".26" stop-color="#752D6C"/><stop offset=".44" stop-color="#A22657"/><stop offset=".6" stop-color="#C22247"/><stop offset=".74" stop-color="#D51F3E"/><stop offset=".83" stop-color="#DD1E3B"/></linearGradient></defs></svg>