<svg viewBox="0 0 618 573" fill="none" xmlns="http://www.w3.org/2000/svg"><g filter="url(#a)" shape-rendering="crispEdges"><path d="M194.11 546a138.124 138.124 0 0 1-97.659-40.451A138.116 138.116 0 0 1 56 407.891V56.001a138.111 138.111 0 0 1 138.11 138.047V546ZM546 194.048a138.1 138.1 0 0 0-40.537-97.683A138.123 138.123 0 0 0 407.707 56v351.891a138.104 138.104 0 0 0 85.257 127.596A138.124 138.124 0 0 0 545.817 546L546 194.048ZM231.976 546a138.11 138.11 0 0 0 138.048-138.109V56.001a138.048 138.048 0 0 0-138.048 138.047V546Z" fill="url(#b)"/><path d="M193.61 545.499a137.627 137.627 0 0 1-52.162-10.474 137.624 137.624 0 0 1-74.473-74.473A137.613 137.613 0 0 1 56.5 407.891V56.501a137.61 137.61 0 0 1 137.11 137.547v351.451Zm341.38-404.135a137.603 137.603 0 0 1 10.51 52.684l-.183 351.451a137.622 137.622 0 0 1-96.805-40.304 137.605 137.605 0 0 1-40.305-97.304V56.501a137.61 137.61 0 0 1 126.783 84.863Zm-205.749 363.81a137.611 137.611 0 0 1-96.765 40.325V194.048A137.545 137.545 0 0 1 369.524 56.501v351.39c0 36.485-14.49 71.478-40.283 97.283Z" stroke="url(#c)"/></g><defs><linearGradient id="b" x1="151.278" y1="130.861" x2="528.986" y2="546" gradientUnits="userSpaceOnUse"><stop stop-color="#fff" stop-opacity=".18"/><stop offset="1" stop-color="#fff" stop-opacity=".1"/></linearGradient><linearGradient id="c" x1="56" y1="56" x2="546" y2="546" gradientUnits="userSpaceOnUse"><stop stop-color="#FF00C7" stop-opacity="0"/><stop offset=".589" stop-color="#FF00C7" stop-opacity=".08"/><stop offset="1" stop-color="#FF00C7" stop-opacity=".41"/><stop offset="1" stop-color="#FF00C7" stop-opacity=".41"/><stop offset="1" stop-color="#FF00C7" stop-opacity=".41"/></linearGradient><filter id="a" x="0" y="0" width="618" height="618" filterUnits="userSpaceOnUse" color-interpolation-filters="sRGB"><feFlood flood-opacity="0" result="BackgroundImageFix"/><feGaussianBlur in="BackgroundImageFix" stdDeviation="20"/><feComposite in2="SourceAlpha" operator="in" result="effect1_backgroundBlur_1756_1159"/><feColorMatrix in="SourceAlpha" values="0 0 0 0 0 0 0 0 0 0 0 0 0 0 0 0 0 0 127 0" result="hardAlpha"/><feOffset dx="8" dy="8"/><feGaussianBlur stdDeviation="32"/><feComposite in2="hardAlpha" operator="out"/><feColorMatrix values="0 0 0 0 0 0 0 0 0 0 0 0 0 0 0 0 0 0 0.08 0"/><feBlend in2="effect1_backgroundBlur_1756_1159" result="effect2_dropShadow_1756_1159"/><feBlend in="SourceGraphic" in2="effect2_dropShadow_1756_1159" result="shape"/></filter></defs></svg>