<svg viewBox="0 0 188 52" fill="none" xmlns="http://www.w3.org/2000/svg"><title>University Insight</title><g fill="currentColor"><path d="M79.228 4.552h-4.65v11.47c0 2.06-.995 3.206-2.933 3.206-1.937 0-2.855-1.146-2.855-3.206V4.553h-4.818v11.844c0 4.673 2.842 7.132 7.57 7.132s7.686-2.459 7.686-7.132V4.552ZM86.067 23.27v-7.71c0-1.533.762-2.228 2.002-2.228 1.24 0 2.002.695 2.002 2.227v7.712h4.366V15.3c0-3.527-1.82-5.561-4.973-5.561-1.834 0-3.074.708-3.836 1.79h-.104l-.245-1.533H81.7v13.274h4.366ZM96.962 8.414h4.547V4.552h-4.547v3.862Zm4.457 14.857V9.997h-4.367v13.274h4.367ZM107.87 9.997h-4.779l5.296 13.274h3.746l5.296-13.274h-4.456l-2.532 7.339h-.078l-2.493-7.339ZM130.546 20.85l-3.152-1.866c-.594.72-1.434 1.171-2.609 1.171-1.473 0-2.467-.837-2.7-2.24h9.301c.478-4.84-2.145-8.175-6.717-8.175-4.211 0-6.989 2.91-6.989 6.94 0 4.029 2.79 6.848 7.053 6.848 2.558 0 4.689-.914 5.813-2.678Zm-5.877-7.724c1.446 0 2.325.785 2.506 2.111h-5.064c.271-1.339 1.163-2.111 2.558-2.111ZM137.992 23.27V16.5c0-1.61.775-2.279 2.196-2.279h1.189V9.997h-1.021c-1.485 0-2.441.734-2.919 2.163h-.078l-.323-2.163h-3.41v13.274h4.366ZM143.255 13.911c0 2.112 1.331 3.412 4.095 4.094l1.693.412c1.214.31 1.472.515 1.472.978 0 .567-.555.915-1.744.915-1.162 0-2.092-.502-2.79-1.442l-3.333 1.866c1.357 1.944 3.372 2.794 6.123 2.794 3.798 0 6.046-1.673 6.046-4.429 0-2.137-1.279-3.334-4.147-4.003l-1.834-.425c-1.072-.27-1.369-.49-1.369-.914 0-.477.465-.798 1.356-.798.956 0 1.86.437 2.493 1.184l3.113-1.841c-1.24-1.66-3.1-2.562-5.619-2.562-3.552 0-5.555 1.687-5.555 4.171ZM156.889 8.414h4.547V4.552h-4.547v3.862Zm4.457 14.857V9.997h-4.366v13.274h4.366ZM163.547 14.04h1.667v4.738c0 3.115 1.498 4.493 4.379 4.493h2.428V19.28h-1.576c-.646 0-.904-.31-.904-.966V14.04h2.48V9.997h-2.48V6.444l-4.327.811v2.742h-1.667v4.043ZM181.16 27.686l6.187-17.689h-4.392l-2.325 7.712h-.103l-2.506-7.712h-4.728l4.715 12.334c.206.553.206.94 0 1.532l-1.344 3.823h4.496ZM68.92 28.235h-4.78v18.718h4.78V28.235ZM75.914 46.953v-7.711c0-1.532.762-2.227 2.002-2.227 1.24 0 2.002.695 2.002 2.227v7.712h4.366v-7.97c0-3.527-1.821-5.561-4.973-5.561-1.834 0-3.074.708-3.837 1.79h-.103l-.245-1.533h-3.579v13.273h4.367ZM86.576 37.594c0 2.111 1.33 3.412 4.095 4.094l1.692.412c1.215.309 1.473.515 1.473.978 0 .567-.555.914-1.744.914-1.162 0-2.093-.502-2.79-1.441l-3.333 1.866c1.357 1.944 3.372 2.794 6.123 2.794 3.798 0 6.046-1.674 6.046-4.429 0-2.137-1.28-3.334-4.147-4.003l-1.834-.425c-1.072-.27-1.37-.49-1.37-.914 0-.477.465-.799 1.357-.799.956 0 1.86.438 2.493 1.185l3.113-1.841c-1.24-1.66-3.1-2.562-5.62-2.562-3.551 0-5.554 1.686-5.554 4.171ZM100.21 32.097h4.547v-3.862h-4.547v3.862Zm4.457 14.856V33.68H100.3v13.273h4.367ZM116.647 46.181c0 1.159-.659 1.867-1.873 1.867h-1.964c-1.02 0-1.472-.27-1.924-1.159l-3.553 1.725c.969 2.112 2.403 2.755 5.051 2.755h3.036c3.681 0 5.593-1.944 5.593-5.175V33.68h-3.578l-.271 1.597h-.104c-.865-1.197-2.247-1.854-4.133-1.854-3.333 0-5.917 2.42-5.917 6.334 0 3.9 2.571 6.27 5.852 6.27 1.692 0 2.868-.554 3.669-1.507h.116v1.661Zm-5.271-6.373c0-1.583.969-2.78 2.571-2.78 1.589 0 2.7.978 2.7 2.677 0 1.687-1.059 2.871-2.584 2.871-1.524 0-2.687-1.184-2.687-2.768ZM127.942 46.953V39.23c0-1.532.776-2.227 2.003-2.227 1.188 0 2.002.695 2.002 2.227v7.724h4.366v-8.02c0-3.515-1.821-5.51-4.844-5.51-1.511 0-2.687.49-3.423 1.442h-.104v-6.63h-4.366v18.718h4.366ZM137.959 37.723h1.667v4.738c0 3.115 1.498 4.492 4.379 4.492h2.428v-3.99h-1.576c-.646 0-.904-.31-.904-.966v-4.274h2.48V33.68h-2.48v-3.553l-4.327.811v2.742h-1.667v4.043ZM14.714 52c-1.933 0-3.846-.38-5.631-1.116a14.718 14.718 0 0 1-4.773-3.177 14.653 14.653 0 0 1-3.19-4.755A14.607 14.607 0 0 1 0 37.344V0c3.901 0 7.643 1.543 10.402 4.29a14.627 14.627 0 0 1 4.312 10.36V52Zm37.489-37.35c-.001-1.926-.383-3.832-1.124-5.611a14.652 14.652 0 0 0-3.195-4.755 14.717 14.717 0 0 0-4.78-3.175A14.763 14.763 0 0 0 37.47 0v37.344c0 1.924.381 3.83 1.12 5.608a14.654 14.654 0 0 0 3.19 4.755 14.718 14.718 0 0 0 4.773 3.177A14.765 14.765 0 0 0 52.183 52l.02-37.35ZM18.748 52a14.743 14.743 0 0 0 10.4-4.295 14.628 14.628 0 0 0 4.307-10.361V0c-3.9 0-7.641 1.543-10.4 4.29a14.62 14.62 0 0 0-4.307 10.36V52Z"/></g></svg>