<?xml version="1.0" encoding="UTF-8"?>
<svg viewBox="0 0 16 16" version="1.1" xmlns="http://www.w3.org/2000/svg" xmlns:xlink="http://www.w3.org/1999/xlink">
    <title>Bravery Media</title>
    <g id="Bravery Logo" stroke="none" stroke-width="1" fill="#000000" fill-rule="evenodd">
        <path d="M10.5918086,7.73871793 L15.723884,7.73871793 L16,7.18992326 L10.264151,7.18992326 L9.85918087,7.18992326 L8,10.8924579 L6.14081914,7.17894737 L5.73584906,7.17894737 L0,7.18992326 L0.276115969,7.73871793 L5.40819144,7.73871793 C5.66472689,7.75620269 5.89092617,7.91215169 5.99723884,8.14482599 L6.20340543,8.55459267 L3.07040957,8.55459267 L3.62632305,9.11436323 L6.09664059,9.11436323 C6.35289989,9.13262803 6.57873679,9.28832718 6.68568799,9.52047128 L6.89185457,9.92657934 L4.86700414,9.92657934 L5.42659917,10.4826913 L6.78508974,10.4826913 C7.03781698,10.5062366 7.25843591,10.6626412 7.3630925,10.8924579 L7.99263691,12.1473684 L8.62218131,10.8924579 C8.72849194,10.6629951 8.95059658,10.5079308 9.20386566,10.4863499 L10.5623562,10.4863499 L11.1219513,9.93023796 L9.09710078,9.93023796 L9.3032674,9.52412991 C9.41021857,9.29198582 9.63605545,9.13628666 9.89231476,9.11802186 L12.3626323,9.11802186 L12.9295904,8.55459267 L9.79659457,8.55459267 L10.0027612,8.14482599 C10.1090738,7.91215169 10.3352731,7.75620269 10.5918086,7.73871793 Z"></path>
        <path d="M7.99083007,7.81749338 C8.30329947,7.82036582 8.61314056,7.87440745 8.9078231,7.97743279 L9.01052632,8.01741765 L7.99083007,6 L6.98947368,8.02105263 L7.0921769,7.98106778 C7.38083484,7.87875604 7.68432554,7.82351414 7.99083007,7.81749338 Z"></path>
    </g>
</svg>