<?xml version="1.0" standalone="no"?>
<!DOCTYPE svg PUBLIC "-//W3C//DTD SVG 20010904//EN"
 "http://www.w3.org/TR/2001/REC-SVG-20010904/DTD/svg10.dtd">
<svg version="1.0" xmlns="http://www.w3.org/2000/svg"
 width="700.000000pt" height="700.000000pt" viewBox="0 0 700.000000 700.000000"
 preserveAspectRatio="xMidYMid meet">
<metadata>
Created by potrace 1.14, written by Peter Selinger 2001-2017
</metadata>
<g transform="translate(0.000000,700.000000) scale(0.100000,-0.100000)"
fill="#000000" stroke="none">
<path d="M133 6989 c-45 -13 -109 -79 -123 -125 -8 -29 -10 -943 -8 -3386 l3
-3346 31 -44 c18 -24 51 -53 75 -65 l44 -23 3350 0 3350 0 39 21 c48 25 71 52
91 104 14 36 15 383 13 3392 l-3 3351 -31 43 c-18 24 -47 53 -65 64 -34 20
-51 20 -3384 22 -2060 1 -3362 -2 -3382 -8z m3594 -542 c78 -42 73 -105 -25
-329 -11 -24 -32 -72 -47 -108 -41 -97 -65 -153 -75 -175 -5 -11 -21 -49 -35
-85 -58 -142 -117 -209 -221 -246 -46 -16 -127 -17 -1314 -15 -1239 2 -1266 3
-1310 22 -51 23 -105 70 -127 114 -35 66 -41 121 -42 404 -2 258 0 285 17 325
21 46 72 92 119 106 15 5 703 8 1528 7 1411 -2 1502 -3 1532 -20z m2634 0 c24
-13 58 -43 74 -66 l30 -43 2 -912 2 -913 -25 -53 c-39 -83 -67 -104 -240 -176
-49 -20 -107 -45 -129 -54 -22 -10 -132 -57 -245 -105 -113 -47 -229 -97 -258
-111 -29 -13 -54 -24 -56 -24 -4 0 -324 -135 -391 -164 -40 -18 -418 -179
-870 -371 -203 -87 -523 -223 -710 -302 -429 -184 -428 -183 -512 -174 -20 2
-45 48 -45 83 0 35 22 105 53 173 10 22 30 69 44 105 15 36 38 89 51 118 13
29 24 55 24 58 0 3 9 24 19 47 10 23 40 92 66 152 26 61 53 124 60 140 8 17
46 107 85 200 39 94 77 184 85 200 7 17 77 181 155 365 78 184 151 355 162
380 11 24 24 56 30 70 5 14 72 171 148 350 76 179 157 370 180 425 23 55 50
118 60 140 10 22 44 101 75 175 32 74 68 156 81 182 28 56 81 97 154 122 8 2
416 5 906 5 l892 1 43 -23z m-4476 -1491 c596 -3 902 -8 925 -15 87 -26 169
-103 206 -191 20 -47 25 -154 9 -204 -11 -38 -147 -340 -216 -483 -38 -78 -98
-139 -169 -172 l-55 -26 -930 0 -930 0 -53 29 c-57 32 -104 92 -125 160 -9 30
-12 146 -12 412 l0 370 25 36 c49 73 123 95 306 91 71 -2 529 -5 1019 -7z
m4551 -1234 c8 -9 17 -28 21 -42 4 -14 7 -689 7 -1500 0 -1602 3 -1518 -56
-1585 -53 -62 -91 -67 -406 -63 -236 4 -284 7 -327 23 -67 25 -140 98 -157
159 -11 38 -14 277 -13 1309 l0 1262 28 57 c52 105 87 127 448 280 178 76 335
139 349 141 31 4 89 -18 106 -41z m-4123 -407 c93 -39 121 -125 78 -239 -148
-388 -166 -425 -234 -489 -60 -57 -48 -51 -657 -307 -107 -45 -213 -90 -235
-100 -53 -23 -587 -248 -619 -260 -17 -6 -36 -5 -57 2 -59 21 -59 18 -59 655
0 376 4 591 11 616 13 47 77 113 121 125 19 6 373 10 824 11 683 1 796 -1 827
-14z m2460 -323 c91 -41 154 -112 182 -204 22 -75 24 -2087 2 -2138 -21 -50
-73 -98 -118 -110 -41 -11 -718 -9 -756 2 -44 13 -125 58 -145 81 -10 12 -31
47 -45 77 l-26 55 -1 905 -1 905 27 57 c31 66 91 128 151 156 128 60 440 198
492 218 76 29 169 27 238 -4z m-1536 -603 c15 -6 39 -20 51 -32 56 -52 54 -14
54 -871 -1 -717 -2 -796 -17 -834 -21 -52 -72 -98 -125 -112 -27 -7 -228 -10
-622 -8 -635 3 -617 2 -637 60 -13 37 -14 35 144 403 75 176 166 390 202 475
36 85 74 173 83 195 10 22 51 116 90 209 74 174 98 218 147 272 32 35 116 94
133 94 7 0 26 7 43 15 99 45 367 144 394 144 17 1 44 -4 60 -10z m-1406 -569
c11 -6 19 -21 19 -35 0 -23 -112 -299 -236 -580 -7 -16 -25 -59 -39 -95 -14
-36 -32 -78 -40 -95 -7 -16 -36 -86 -65 -155 -95 -229 -111 -254 -195 -299
-50 -26 -51 -26 -314 -29 -294 -4 -319 0 -379 59 -50 49 -54 78 -50 364 l3
260 28 47 c39 67 77 94 218 153 395 167 956 403 969 408 25 9 60 8 81 -3z"/>
</g>
</svg>
